<svg id="em79q5ff4n1l1" xmlns="http://www.w3.org/2000/svg" xmlns:xlink="http://www.w3.org/1999/xlink" viewBox="0 0 1200 400" shape-rendering="geometricPrecision" text-rendering="geometricPrecision"><style><![CDATA[#em79q5ff4n1l3_to {animation: em79q5ff4n1l3_to__to 4000ms linear 1 normal forwards}@keyframes em79q5ff4n1l3_to__to { 0% {transform: translate(0px,153.973638px);animation-timing-function: cubic-bezier(0.350000,0.090000,0.625000,0.960000)} 85% {transform: translate(600px,153.973638px)} 100% {transform: translate(600px,153.973638px)} }#em79q5ff4n1l5_to {animation: em79q5ff4n1l5_to__to 4000ms linear 1 normal forwards}@keyframes em79q5ff4n1l5_to__to { 0% {transform: translate(0.841954px,0px)} 37.500000% {transform: translate(0.841954px,0px)} 47.500000% {transform: translate(0.841954px,-50px);animation-timing-function: cubic-bezier(0.470000,-0.425000,1,1)} 60% {transform: translate(0.841954px,51px)} 100% {transform: translate(0.841954px,51px)} }#em79q5ff4n1l6_to {animation: em79q5ff4n1l6_to__to 4000ms linear 1 normal forwards}@keyframes em79q5ff4n1l6_to__to { 0% {transform: translate(221px,-4px)} 25% {transform: translate(211px,1px)} 85% {transform: translate(221px,-4px)} 100% {transform: translate(221px,-4px)} }#em79q5ff4n1l6_tr {animation: em79q5ff4n1l6_tr__tr 4000ms linear 1 normal forwards}@keyframes em79q5ff4n1l6_tr__tr { 0% {transform: rotate(0deg)} 25% {transform: rotate(-20deg)} 85% {transform: rotate(0deg)} 100% {transform: rotate(0deg)} }#em79q5ff4n1l14_to {animation: em79q5ff4n1l14_to__to 4000ms linear 1 normal forwards}@keyframes em79q5ff4n1l14_to__to { 0% {transform: translate(204.158873px,-2.763105px)} 25% {transform: translate(195.861280px,3.977977px)} 85% {transform: translate(207px,-2px)} 100% {transform: translate(207px,-2px)} }#em79q5ff4n1l14_tr {animation: em79q5ff4n1l14_tr__tr 4000ms linear 1 normal forwards}@keyframes em79q5ff4n1l14_tr__tr { 0% {transform: rotate(0deg)} 25% {transform: rotate(-20deg)} 85% {transform: rotate(0deg)} 100% {transform: rotate(0deg)} }#em79q5ff4n1l17_to {animation: em79q5ff4n1l17_to__to 4000ms linear 1 normal forwards}@keyframes em79q5ff4n1l17_to__to { 0% {transform: translate(0px,146.898000px)} 37.500000% {transform: translate(0px,146.898000px);animation-timing-function: cubic-bezier(0.420000,0,1,1)} 47.500000% {transform: translate(29px,121px)} 100% {transform: translate(29px,121px)} }#em79q5ff4n1l17_tr {animation: em79q5ff4n1l17_tr__tr 4000ms linear 1 normal forwards}@keyframes em79q5ff4n1l17_tr__tr { 0% {transform: rotate(0deg)} 37.500000% {transform: rotate(0deg);animation-timing-function: cubic-bezier(0.420000,0,1,1)} 47.500000% {transform: rotate(43deg)} 100% {transform: rotate(43deg)} }#em79q5ff4n1l18_tr {animation: em79q5ff4n1l18_tr__tr 4000ms linear 1 normal forwards}@keyframes em79q5ff4n1l18_tr__tr { 0% {transform: translate(17.481900px,-6px) rotate(12.999998deg);animation-timing-function: cubic-bezier(0.470000,0,0.745000,0.715000)} 12.500000% {transform: translate(17.481900px,-6px) rotate(9deg);animation-timing-function: cubic-bezier(0.470000,0,0.745000,0.715000)} 25% {transform: translate(17.481900px,-6px) rotate(16deg);animation-timing-function: cubic-bezier(0.470000,0,0.745000,0.715000)} 37.500000% {transform: translate(17.481900px,-6px) rotate(9deg)} 100% {transform: translate(17.481900px,-6px) rotate(9deg)} }#em79q5ff4n1l19_tr {animation: em79q5ff4n1l19_tr__tr 4000ms linear 1 normal forwards}@keyframes em79q5ff4n1l19_tr__tr { 0% {transform: translate(0px,0px) rotate(0deg);animation-timing-function: cubic-bezier(0.470000,0,0.745000,0.715000)} 12.500000% {transform: translate(0px,0px) rotate(5deg);animation-timing-function: cubic-bezier(0.470000,0,0.745000,0.715000)} 25% {transform: translate(0px,0px) rotate(-5deg);animation-timing-function: cubic-bezier(0.470000,0,0.745000,0.715000)} 37.500000% {transform: translate(0px,0px) rotate(0deg)} 100% {transform: translate(0px,0px) rotate(0deg)} }#em79q5ff4n1l20_tr {animation: em79q5ff4n1l20_tr__tr 4000ms linear 1 normal forwards}@keyframes em79q5ff4n1l20_tr__tr { 0% {transform: translate(128.838000px,169.885000px) rotate(0deg)} 37.500000% {transform: translate(128.838000px,169.885000px) rotate(0deg);animation-timing-function: cubic-bezier(0.420000,0,1,1)} 47.500000% {transform: translate(128.838000px,169.885000px) rotate(-45deg)} 100% {transform: translate(128.838000px,169.885000px) rotate(-45deg)} }#em79q5ff4n1l21_tr {animation: em79q5ff4n1l21_tr__tr 4000ms linear 1 normal forwards}@keyframes em79q5ff4n1l21_tr__tr { 0% {transform: translate(0px,0px) rotate(-1deg);animation-timing-function: cubic-bezier(0.470000,0,0.745000,0.715000)} 12.500000% {transform: translate(0px,0px) rotate(12deg);animation-timing-function: cubic-bezier(0.470000,0,0.745000,0.715000)} 25% {transform: translate(0px,0px) rotate(-8deg);animation-timing-function: cubic-bezier(0.470000,0,0.745000,0.715000)} 37.500000% {transform: translate(0px,0px) rotate(0deg)} 100% {transform: translate(0px,0px) rotate(0deg)} }#em79q5ff4n1l22_tr {animation: em79q5ff4n1l22_tr__tr 4000ms linear 1 normal forwards}@keyframes em79q5ff4n1l22_tr__tr { 0% {transform: translate(0px,0px) rotate(8deg);animation-timing-function: cubic-bezier(0.470000,0,0.745000,0.715000)} 12.500000% {transform: translate(0px,0px) rotate(-8deg);animation-timing-function: cubic-bezier(0.470000,0,0.745000,0.715000)} 25% {transform: translate(0px,0px) rotate(8deg);animation-timing-function: cubic-bezier(0.470000,0,0.745000,0.715000)} 37.500000% {transform: translate(0px,0px) rotate(0deg)} 100% {transform: translate(0px,0px) rotate(0deg)} }]]></style><defs><filter id="em79q5ff4n1l5-filter" x="-400%" width="600%" y="-400%" height="600%"><feColorMatrix id="em79q5ff4n1l5-filter-hue-rotate-0" type="hueRotate" values="271" result="result"/><feComponentTransfer id="em79q5ff4n1l5-filter-brightness-0" result="result"><feFuncR id="em79q5ff4n1l5-filter-brightness-0-R" type="linear" slope="1.200000"/><feFuncG id="em79q5ff4n1l5-filter-brightness-0-G" type="linear" slope="1.200000"/><feFuncB id="em79q5ff4n1l5-filter-brightness-0-B" type="linear" slope="1.200000"/></feComponentTransfer><feComponentTransfer id="em79q5ff4n1l5-filter-contrast-0" result="result"><feFuncR id="em79q5ff4n1l5-filter-contrast-0-R" type="linear" slope="1" intercept="0"/><feFuncG id="em79q5ff4n1l5-filter-contrast-0-G" type="linear" slope="1" intercept="0"/><feFuncB id="em79q5ff4n1l5-filter-contrast-0-B" type="linear" slope="1" intercept="0"/></feComponentTransfer><feColorMatrix id="em79q5ff4n1l5-filter-saturate-0" type="saturate" values="1.200000" result="result"/></filter></defs><g id="em79q5ff4n1l2" transform="matrix(1 0 0 1 0.00000000000003 46.02636194000002)"><g id="em79q5ff4n1l3_to" transform="translate(0,153.973638)"><g id="em79q5ff4n1l3" transform="translate(0,-153.973638)"><path id="em79q5ff4n1l4" d="M100.100000,311.500000C155.200000,311.500000,200.100000,302.700000,200.100000,292C200.100000,281.300000,155.200000,272.600000,100.100000,272.600000C44.900000,272.600000,0,281.300000,0,292C0,302.700000,44.900000,311.500000,100.100000,311.500000Z" opacity="0.5" fill="rgb(35,35,35)" stroke="none" stroke-width="1"/><g id="em79q5ff4n1l5_to" transform="translate(0.841954,0)"><g id="em79q5ff4n1l5" transform="translate(0,0)" filter="url(#em79q5ff4n1l5-filter)"><g id="em79q5ff4n1l6_to" transform="translate(221,-4)"><g id="em79q5ff4n1l6_tr" transform="rotate(0)"><g id="em79q5ff4n1l6" transform="scale(1.100000,1.200000) translate(0,0)"><path id="em79q5ff4n1l7" d="M18.350914,1.421085C20.550914,1.421085,0,0,0,0C17.150914,34.800000,1.150914,39.100000,0.050914,30.300000C-0.949086,23.100000,13.050914,1.421085,0,0Z" fill="rgb(169,165,117)" fill-opacity="0" stroke="none" stroke-width="1"/><path id="em79q5ff4n1l8" d="M16.950914,12.200000C18.150914,12.200000,18.450914,21,17.550914,25.800000C16.350914,31.900000,7.250914,34.300000,6.650914,29.400000C6.150914,25.200000,13.950914,12.200000,16.950914,12.200000L16.950914,12.200000Z" fill="rgb(138,135,104)" stroke="none" stroke-width="1"/></g></g></g><g id="em79q5ff4n1l9" transform="matrix(1 0 0 1 125.95800000000000 16.50740000000000)"><path id="em79q5ff4n1l10" d="M124.700000,19.192640C124.700000,19.192640,126.700000,28.192640,137.800000,33.892640C149,39.592640,142.200000,55.892640,133.300000,58.992640C124.500000,62.192640,112.400000,58.792640,107.800000,58.492640C103.200000,58.292640,95.500000,58.892640,96.700000,49.492640C97.900000,40.192640,92.100000,36.892640,90,29.592640C87.900000,22.392640,96.600000,11.092640,103.100000,16.192640C109.500000,21.192640,115,22.392640,124.700000,19.192640L124.700000,19.192640Z" fill="rgb(232,225,187)" stroke="none" stroke-width="1"/><path id="em79q5ff4n1l11" d="M15.900000,98.192640C18.600000,98.192640,21.200000,99.592640,22.700000,101.692640C23.700000,100.092640,25.600000,98.992640,27.700000,98.992640C28.900000,98.992640,30.100000,99.392640,31.100000,99.992640C31.800000,98.892640,33.200000,98.292640,34.700000,98.292640C36.200000,98.292640,37.600000,98.892640,38.400000,99.892640C39.300000,96.292640,42.500000,93.692640,46.400000,93.692640L46.600000,93.692640C46.400000,92.992640,46.200000,92.292640,46.200000,91.592640C46.200000,88.592640,48.300000,85.992640,51.200000,85.592640L51.200000,85.092640C51.200000,83.392640,52.100000,81.992640,53.300000,81.092640C52.300000,79.692640,51.900000,77.992640,52.600000,76.392640C53.300000,74.692640,55,73.492640,56.800000,73.392640C56.600000,72.692640,56.600000,71.792640,56.900000,70.992640C57,70.492640,57.300000,70.092640,57.500000,69.792640C56.300000,68.792640,55.400000,67.192640,55.400000,65.292640C55.400000,62.592640,57.300000,60.192640,59.900000,59.592640C59.700000,59.092640,59.700000,58.592640,59.700000,58.092640C59.600000,56.592640,60.200000,55.392640,61.200000,54.492640C58.800000,53.492640,57.700000,50.892640,58.700000,48.492640C59.200000,46.992640,60.400000,45.992640,61.800000,45.592640C61.800000,44.992640,61.800000,44.492640,62,43.892640C62.200000,43.292640,62.600000,42.892640,63,42.392640C60.900000,41.792640,59.400000,39.792640,59.400000,37.492640C59.400000,34.592640,61.800000,32.292640,64.600000,32.292640L65.200000,32.292640C65,31.692640,64.800000,31.092640,64.800000,30.392640C64.800000,28.192640,66.300000,26.292640,68.400000,25.792640C67.200000,24.592640,66.700000,22.592640,67.300000,20.692640C67.900000,19.292640,69.200000,18.192640,70.500000,17.792640C70.400000,17.292640,70.500000,16.692640,70.700000,16.192640C71.300000,14.292640,73.200000,13.492640,74.900000,13.792640C75,12.292640,75.900000,10.892640,77.300000,10.092640C78.300000,9.492640,79.500000,9.392640,80.700000,9.592640C80.300000,7.392640,81.400000,4.992640,83.600000,3.792640C86.200000,2.192640,89.700000,2.892640,91.400000,5.492640C92,4.792640,92.900000,4.092640,94,3.892640C95.200000,3.792640,96.600000,4.292640,97.400000,5.092640C97.900000,4.992640,98.300000,4.692640,98.800000,4.692640C99.700000,4.592640,100.500000,4.592640,101.300000,4.892640C101.200000,3.192640,102,1.492640,103.500000,0.692640C105.700000,-0.707360,108.700000,0.092640,110.100000,2.392640C110.300000,2.792640,110.500000,3.292640,110.600000,3.792640C111,3.392640,111.300000,3.192640,111.800000,2.892640C114.500000,1.292640,118.100000,2.192640,119.900000,4.892640C120.500000,4.792640,121.300000,4.892640,121.900000,4.992640C123.400000,5.392640,124.500000,6.392640,125,7.592640C126.600000,5.992640,129.200000,5.692640,131.100000,7.092640C132.800000,8.292640,133.500000,10.592640,132.800000,12.592640L132.900000,12.592640C134.500000,13.792640,134.900000,16.192640,133.600000,17.892640C133.400000,18.292640,133,18.592640,132.500000,18.892640C133.100000,19.992640,133,21.392640,132,22.392640C131.500000,22.792640,130.900000,22.992640,130.300000,23.092640C131,23.992640,130.800000,25.292640,129.900000,26.092640C129,27.092640,127.400000,26.992640,126.500000,25.992640C126.100000,25.592640,125.900000,25.092640,125.900000,24.492640C125,24.892640,124,24.592640,123.300000,23.892640C123.300000,23.792640,123.200000,23.792640,123.200000,23.692640C123,24.092640,122.800000,24.292640,122.500000,24.592640C121.400000,25.692640,119.400000,25.692640,118.300000,24.492640C118.200000,24.392640,118.100000,24.292640,118.100000,24.092640C118,24.492640,117.700000,24.792640,117.400000,25.092640C116.500000,25.992640,114.900000,25.992640,114,24.992640C113.600000,24.592640,113.400000,24.092640,113.400000,23.592640C112.300000,23.992640,110.900000,23.792640,110,22.892640C109.900000,22.792640,109.800000,22.692640,109.600000,22.392640C108.900000,22.892640,107.900000,22.992640,107,22.592640C106.300000,22.392640,105.600000,21.692640,105.400000,20.992640C104.800000,21.592640,103.800000,21.892640,102.900000,21.492640C102.800000,21.492640,102.700000,21.392640,102.500000,21.392640C102.500000,21.592640,102.500000,21.792640,102.400000,21.992640C102,22.992640,101.200000,23.692640,100.200000,23.892640C100.800000,24.492640,101.100000,25.492640,100.700000,26.492640C100.600000,26.892640,100.300000,27.192640,100,27.492640C101.500000,28.492640,102,30.192640,101.400000,31.992640C101.300000,32.392640,101.200000,32.592640,100.900000,32.992640C101.100000,32.992640,101.300000,33.092640,101.500000,33.092640C104.100000,34.092640,105.400000,36.992640,104.400000,39.392640C104.300000,39.792640,104.200000,39.992640,104,40.292640C105.400000,41.292640,106,43.192640,105.400000,44.792640C105.300000,45.192640,105.200000,45.392640,104.900000,45.792640C105,45.792640,105.100000,45.792640,105.300000,45.892640C106.800000,46.392640,107.700000,48.092640,107,49.792640C107,49.892640,106.900000,49.892640,106.900000,49.992640C107.600000,49.792640,108.500000,49.792640,109.300000,50.092640C110.800000,50.592640,111.700000,51.792640,111.800000,53.292640C112.200000,53.292640,112.500000,53.392640,112.800000,53.492640C114.800000,54.192640,115.800000,56.392640,115,58.392640C114.600000,59.292640,114,59.892640,113.300000,60.292640C113.800000,61.392640,113.800000,62.492640,113.300000,63.692640C113.100000,64.392640,112.700000,64.892640,112.200000,65.392640C113.800000,66.092640,115.100000,67.792640,115.100000,69.792640C115.100000,72.392640,113,74.492640,110.400000,74.492640L109.500000,74.492640C109.400000,76.392640,107.900000,77.692640,106,77.892640C105.900000,77.892640,105.800000,77.792640,105.600000,77.792640C106.200000,78.792640,106.300000,79.992640,105.800000,81.192640C105.700000,81.592640,105.400000,81.892640,105.200000,82.292640C107.100000,83.392640,107.900000,85.792640,107.100000,87.992640C106.500000,89.592640,105,90.692640,103.400000,90.992640C104,91.692640,104.500000,92.892640,104.500000,93.992640C104.500000,95.092640,104.100000,96.192640,103.400000,97.092640C104.400000,97.792640,105,99.092640,105.100000,100.492640C105.100000,102.892640,103.500000,104.692640,101.200000,104.992640C101.700000,105.692640,101.900000,106.592640,101.900000,107.592640C101.900000,108.592640,101.500000,109.592640,101,110.192640C102.100000,111.192640,102.900000,112.592640,102.900000,114.192640C102.800000,116.592640,100.900000,118.592640,98.500000,118.792640C99.500000,119.992640,99.900000,121.892640,99.100000,123.492640C98.900000,124.392640,98.200000,124.992640,97.600000,125.492640C98.700000,126.492640,99.100000,128.192640,98.500000,129.592640C97.800000,131.292640,96,132.192640,94.400000,131.992640C94.600000,132.492640,94.800000,132.992640,94.800000,133.592640C94.800000,135.492640,93.300000,136.992640,91.400000,137.092640C91.400000,137.292640,91.500000,137.692640,91.400000,137.992640C91.400000,139.392640,90.800000,140.592640,89.800000,141.492640C92,142.592640,93.200000,145.192640,92.200000,147.592640C91.600000,149.092640,90.300000,150.092640,89,150.292640C89,150.892640,88.900000,151.392640,88.600000,151.992640C88.200000,152.992640,87.400000,153.692640,86.400000,154.092640C86.800000,154.792640,87,155.692640,87,156.592640C86.900000,159.092640,85,160.992640,82.600000,161.192640C83.600000,162.592640,84,164.292640,83.200000,165.892640C82.200000,168.392640,79.500000,169.492640,77.100000,168.492640L77,168.392640C77.600000,169.392640,77.700000,170.792640,77.200000,171.892640C76.600000,173.492640,74.800000,174.492640,73.100000,174.092640C73.300000,174.692640,73.600000,175.192640,73.500000,175.792640C73.500000,177.692640,72,179.192640,70.100000,179.292640C70.200000,179.492640,70.200000,179.792640,70.200000,180.192640C70.100000,182.792640,68,184.892640,65.300000,184.792640C64.800000,184.792640,64.300000,184.692640,63.800000,184.592640C63.800000,185.192640,63.700000,185.992640,63.400000,186.592640C62.400000,189.092640,59.700000,190.192640,57.200000,189.192640C56.500000,188.792640,55.800000,188.292640,55.500000,187.792640C55.400000,187.992640,55.300000,188.392640,55.100000,188.792640C54.400000,190.692640,52.100000,191.492640,50.200000,190.792640C50,190.692640,49.700000,190.592640,49.500000,190.392640C49.100000,192.092640,47.300000,193.292640,45.500000,192.892640C45.500000,193.292640,45.400000,193.492640,45.400000,193.892640C44.700000,196.392640,42,197.892640,39.600000,197.292640C39.100000,197.192640,38.600000,196.892640,38.200000,196.692640C38.100000,197.292640,37.700000,197.892640,37.300000,198.592640C35.800000,200.692640,32.800000,201.092640,30.700000,199.592640C30.100000,199.092640,29.600000,198.492640,29.200000,197.892640C29.100000,198.092640,29,198.492640,28.700000,198.792640C28.200000,199.492640,27.300000,199.992640,26.500000,200.292640C26.900000,201.192640,26.900000,202.192640,26.500000,202.992640C25.600000,204.992640,23.500000,205.892640,21.500000,205.092640C20.600000,204.592640,19.900000,203.992640,19.500000,203.092640L19.400000,203.092640C17.900000,202.992640,16.800000,202.092640,16.200000,200.992640C15.100000,201.492640,13.700000,201.592640,12.500000,200.992640C10,199.992640,8.900000,197.292640,10,194.892640C10.100000,194.392640,10.400000,193.892640,10.700000,193.492640C9.800000,193.292640,9.100000,192.492640,8.600000,191.492640C8.400000,190.792640,8.400000,189.892640,8.500000,189.092640C8.400000,188.992640,8.300000,188.692640,8,188.592640C6.600000,187.192640,6.400000,185.092640,7.100000,183.392640C6.600000,182.892640,6.100000,182.392640,5.900000,181.692640C4.900000,179.292640,6.100000,176.592640,8.500000,175.592640C8.700000,175.492640,9.100000,175.392640,9.400000,175.392640C9,174.992640,8.700000,174.492640,8.400000,173.992640C7.800000,172.292640,8.400000,170.492640,9.800000,169.492640C9.200000,169.292640,8.700000,168.992640,8.300000,168.492640C7.100000,167.092640,6.900000,164.992640,8.200000,163.792640C8.100000,163.592640,7.800000,163.392640,7.600000,163.192640C5.700000,161.292640,5.900000,158.192640,7.700000,156.492640C7.300000,155.392640,7.200000,154.092640,7.700000,152.892640C7.900000,152.292640,8.300000,151.892640,8.700000,151.392640C8.300000,151.492640,8.100000,151.492640,7.700000,151.492640C5.100000,151.392640,3,149.292640,3.100000,146.592640C3.100000,144.492640,4.600000,142.692640,6.500000,142.092640C6.100000,141.492640,5.900000,140.592640,5.900000,139.692640C5.900000,139.492640,5.900000,139.192640,6,138.992640C5.500000,139.092640,5.100000,139.192640,4.600000,139.192640C2.100000,139.192640,0,137.192640,0,134.792640C0,132.592640,1.600000,130.692640,3.700000,130.292640C3,129.392640,2.600000,128.392640,2.600000,127.292640C2.600000,124.892640,4.500000,122.792640,6.800000,122.592640C5.700000,121.392640,5.300000,119.492640,5.900000,117.892640C6.300000,116.992640,6.800000,116.392640,7.400000,115.892640C6.300000,114.892640,5.900000,113.292640,6.400000,111.792640C6.800000,110.792640,7.400000,110.192640,8.100000,109.792640C7.700000,108.792640,7.500000,107.792640,7.500000,106.692640C7.500000,102.092640,11.300000,98.392640,15.900000,98.192640L15.900000,98.192640Z" fill="rgb(169,165,117)" stroke="none" stroke-width="1"/><path id="em79q5ff4n1l12" d="M109.900000,25.792640C112.100000,25.792640,113.900000,27.492640,114,29.792640C114,31.992640,112.300000,33.792640,110,33.792640C107.800000,33.792640,106,32.092640,106,29.892640C106.100000,27.692640,107.800000,25.992640,109.900000,25.792640Z" fill="rgb(34,31,32)" stroke="none" stroke-width="1"/><path id="em79q5ff4n1l13" d="M139.700000,38.992640C143.400000,37.092640,144.200000,43.592640,141.700000,44.692640C139.800000,45.692640,137.600000,44.592640,136.800000,42.492640C135.900000,40.292640,137.800000,39.892640,139.700000,38.992640Z" fill="rgb(34,31,32)" stroke="none" stroke-width="1"/></g><g id="em79q5ff4n1l14_to" transform="translate(204.158873,-2.763105)"><g id="em79q5ff4n1l14_tr" transform="rotate(0)"><g id="em79q5ff4n1l14" transform="scale(1.100000,1.200000) translate(0,0)"><path id="em79q5ff4n1l15" d="M18.450573,-3.552714C20.550573,-3.552714,0,0,0,0C17.250573,34.900000,1.150573,39.200000,0.050573,30.400000C-0.949427,23.200000,13.150573,-3.552714,0,0L18.450573,-3.552714Z" fill="rgb(169,165,117)" fill-opacity="0" stroke="none" stroke-width="1"/><path id="em79q5ff4n1l16" d="M16.950573,12.400000C18.150573,12.400000,18.450573,21.200000,17.550573,26C16.350573,32.100000,7.350573,34.500000,6.650573,29.500000C6.150573,25.300000,14.050573,12.400000,16.950573,12.400000L16.950573,12.400000Z" fill="rgb(138,135,104)" stroke="none" stroke-width="1"/></g></g></g><g id="em79q5ff4n1l17_to" transform="translate(0,146.898000)"><g id="em79q5ff4n1l17_tr" transform="rotate(0)"><g id="em79q5ff4n1l17" transform="translate(0,0)"><g id="em79q5ff4n1l18_tr" transform="translate(17.481900,-6) rotate(12.999998)"><path id="em79q5ff4n1l18" d="M90.858046,27.002352C92.758046,28.002352,93.958046,30.002352,93.958046,32.302352C94.058046,33.902352,93.358046,35.402352,92.358046,36.502352C93.858046,37.202352,94.858046,38.602352,94.858046,40.402352C94.858046,41.902352,94.158046,43.302352,92.958046,44.002352C94.358046,44.902352,95.158046,46.502352,95.158046,48.202352C95.258046,50.902352,93.058046,53.302352,90.158046,53.302352C89.658046,53.302352,89.158046,53.202352,88.658046,53.102352L88.658046,53.202352C88.658046,54.902352,87.258046,56.402352,85.558046,56.402352C84.958046,56.402352,84.458046,56.302352,83.958046,55.902352C83.558046,56.802352,82.958046,57.502352,82.258046,57.902352C82.958046,58.802352,83.358046,59.902352,83.358046,61.002352C83.458046,63.902352,81.258046,66.102352,78.358046,66.102352C76.858046,66.202352,75.358046,65.502352,74.458046,64.402352L74.358046,64.602352C74.758046,65.202352,74.958046,66.002352,74.958046,66.702352C74.958046,67.902352,74.458046,69.102352,73.558046,69.702352C74.758046,70.702352,75.558046,72.102352,75.558046,73.802352C75.558046,76.502352,73.358046,78.802352,70.558046,78.902352C69.858046,78.902352,69.158046,78.802352,68.558046,78.402352C68.458046,80.102352,67.458046,81.502352,66.058046,82.002352C67.258046,84.102352,66.758046,87.002352,64.658046,88.602352C64.658046,88.602352,64.558046,88.702352,64.458046,88.702352C64.958046,89.402352,65.358046,90.202352,65.358046,91.102352C65.358046,93.302352,63.658046,95.102352,61.458046,95.102352C61.058046,95.102352,60.858046,95.102352,60.558046,95.002352C61.258046,95.902352,61.758046,97.102352,61.758046,98.402352C61.758046,99.802352,61.258046,101.002352,60.358046,102.002352C61.858046,102.202352,62.958046,103.502352,62.958046,105.102352C62.958046,105.302352,62.958046,105.702352,62.858046,106.002352C64.858046,106.702352,66.258046,108.902352,65.958046,111.102352C65.858046,112.202352,65.358046,113.202352,64.558046,114.102352C66.258046,114.602352,67.458046,116.202352,67.158046,118.102352C67.058046,119.302352,66.458046,120.502352,65.258046,121.102352C66.158046,121.802352,66.458046,122.802352,66.458046,123.802352C67.358046,123.902352,68.158046,124.202352,68.858046,124.802352C70.458046,126.302352,70.558046,128.802352,69.058046,130.302352C67.958046,131.702352,65.958046,132.002352,64.458046,131.202352C63.958046,133.702352,61.558046,135.402352,59.158046,135.202352C57.058046,135.002352,55.258046,133.302352,54.758046,131.302352C54.758046,131.302352,54.658046,131.302352,54.558046,131.202352C54.558046,131.402352,54.358046,131.602352,54.158046,131.802352C52.758046,133.302352,50.258046,133.402352,48.658046,132.002352C48.158046,131.502352,47.758046,131.002352,47.658046,130.402352C46.458046,130.602352,45.158046,130.302352,44.158046,129.402352C43.458046,128.702352,42.958046,127.702352,42.958046,126.702352C42.558046,126.702352,42.258046,126.802352,41.758046,126.702352C39.158046,126.502352,37.158046,124.002352,37.358046,121.202352C37.458046,120.502352,37.758046,119.702352,38.058046,119.102352C37.658046,119.002352,37.358046,118.702352,37.058046,118.402352C35.458046,117.002352,35.358046,114.502352,36.858046,112.902352C36.958046,112.702352,37.258046,112.502352,37.458046,112.402352C37.258046,112.202352,37.058046,112.002352,36.858046,111.902352C35.158046,110.302352,34.758046,107.502352,35.858046,105.602352C34.958046,105.202352,34.258046,104.702352,33.658046,103.902352C32.258046,102.202352,32.458046,99.902352,33.558046,98.202352C32.158046,97.802352,31.158046,96.602352,31.158046,95.102352C31.158046,94.602352,31.258046,94.202352,31.358046,93.702352L30.658046,93.002352C28.958046,90.602352,29.258046,87.402352,31.358046,85.502352L31.258046,85.402352C29.758046,83.402352,30.158046,80.502352,31.958046,78.802352C31.858046,78.802352,31.758046,78.702352,31.758046,78.602352C30.858046,77.502352,30.758046,76.002352,31.258046,74.702352C31.158046,74.602352,31.158046,74.502352,31.058046,74.502352C30.058046,73.102352,30.358046,71.102352,31.658046,70.102352C31.858046,70.002352,32.058046,69.902352,32.158046,69.902352C30.958046,67.702352,31.558046,64.702352,33.658046,63.102352C34.658046,62.502352,35.758046,62.102352,36.858046,62.102352C36.258046,60.702352,36.758046,59.202352,37.858046,58.202352L37.958046,58.202352C36.758046,56.202352,37.058046,53.702352,38.958046,52.402352C39.558046,51.902352,40.358046,51.702352,41.058046,51.502352C40.658046,50.602352,40.858046,49.802352,41.258046,49.002352C40.858046,48.802352,40.558046,48.502352,40.258046,48.102352C39.158046,46.602352,39.558046,44.602352,40.858046,43.502352C40.958046,43.502352,41.058046,43.402352,41.358046,43.302352C41.158046,42.902352,41.158046,42.602352,41.158046,42.202352C41.158046,41.202352,41.558046,40.302352,42.158046,39.802352C40.158046,39.102352,38.758046,37.202352,38.658046,35.102352C38.658046,32.202352,40.858046,30.002352,43.658046,29.902352C43.458046,29.502352,43.458046,29.202352,43.458046,28.702352L43.458046,28.602352C41.058046,28.602352,39.358046,26.702352,39.258046,24.402352C39.258046,23.302352,39.758046,22.302352,40.358046,21.502352C38.658046,20.402352,37.358046,18.402352,37.358046,16.002352C37.358046,12.502352,40.058046,9.702352,43.658046,9.502352C44.558046,9.502352,45.358046,9.702352,46.258046,10.102352C47.658046,7.602352,50.258046,6.002352,53.258046,6.002352C57.458046,5.902352,60.958046,9.002352,61.458046,13.102352C61.858046,13.002352,62.158046,13.002352,62.558046,13.002352C65.058046,13.002352,67.258046,14.502352,68.258046,16.602352L69.258046,16.602352C70.758046,16.602352,71.958046,17.002352,73.258046,17.602352C73.658046,17.502352,74.158046,17.502352,74.458046,17.502352C77.158046,17.502352,79.458046,19.102352,80.258046,21.502352C81.358046,20.602352,82.758046,20.002352,84.258046,20.002352C87.658046,20.002352,90.458046,22.602352,90.458046,26.102352C90.958046,26.202352,90.958046,26.702352,90.858046,27.002352L90.858046,27.002352Z" transform="scale(1,1) translate(0,0)" fill="rgb(154,150,116)" stroke="none" stroke-width="1"/></g><g id="em79q5ff4n1l19_tr" transform="translate(0,0) rotate(0)"><path id="em79q5ff4n1l19" d="M61.158046,39.902352C63.058046,41.002352,64.358046,43.002352,64.358046,45.202352C64.358046,46.802352,63.758046,48.302352,62.658046,49.402352C64.158046,50.102352,65.158046,51.602352,65.158046,53.302352C65.158046,54.802352,64.458046,56.202352,63.258046,56.902352C64.658046,57.802352,65.458046,59.402352,65.658046,61.102352C65.658046,63.802352,63.458046,66.202352,60.558046,66.202352C60.058046,66.202352,59.558046,66.102352,59.058046,66.002352L59.058046,66.202352C59.158046,67.902352,57.658046,69.302352,55.958046,69.302352C55.458046,69.302352,54.858046,69.202352,54.358046,68.802352C54.158046,69.702352,53.458046,70.402352,52.758046,70.902352C53.358046,71.602352,53.858046,72.802352,53.858046,73.902352C53.858046,76.802352,51.658046,79.002352,48.758046,79.102352C47.258046,79.102352,45.858046,78.402352,44.858046,77.202352L44.758046,77.402352C45.158046,78.002352,45.358046,78.802352,45.458046,79.502352C45.458046,80.702352,44.858046,81.902352,43.958046,82.602352C45.158046,83.502352,45.958046,85.002352,45.958046,86.602352C46.058046,89.302352,43.858046,91.702352,40.958046,91.702352C40.258046,91.702352,39.558046,91.602352,38.958046,91.302352C38.958046,92.902352,37.958046,94.302352,36.458046,94.802352C37.658046,97.002352,37.158046,99.802352,35.258046,101.402352C35.158046,101.402352,35.058046,101.502352,34.858046,101.502352C35.358046,102.202352,35.758046,103.002352,35.758046,104.002352C35.758046,106.102352,34.058046,107.902352,31.858046,107.902352C31.658046,107.902352,31.258046,107.902352,30.958046,107.802352C31.658046,108.702352,32.158046,109.902352,32.158046,111.202352C32.158046,112.602352,31.658046,113.802352,30.758046,114.802352C32.258046,115.002352,33.458046,116.302352,33.458046,117.902352C33.458046,118.102352,33.358046,118.502352,33.358046,118.802352C35.358046,119.702352,36.558046,121.702352,36.358046,123.902352C36.258046,125.002352,35.758046,126.102352,34.958046,126.902352C36.658046,127.402352,37.858046,129.102352,37.658046,131.002352C37.558046,132.202352,36.758046,133.202352,35.758046,133.902352C36.458046,134.602352,36.858046,135.602352,36.858046,136.602352C37.758046,136.702352,38.558046,137.102352,39.258046,137.602352C40.858046,139.102352,40.958046,141.602352,39.658046,143.202352C38.458046,144.402352,36.558046,144.802352,34.958046,144.102352C34.458046,146.502352,32.258046,148.202352,29.658046,148.002352C27.558046,147.802352,25.758046,146.102352,25.458046,144.102352C25.358046,144.102352,25.258046,144.102352,25.258046,144.002352C25.158046,144.202352,25.058046,144.402352,24.858046,144.602352C23.358046,146.102352,20.858046,146.202352,19.258046,144.802352C18.758046,144.302352,18.358046,143.802352,18.258046,143.202352C17.058046,143.402352,15.758046,143.102352,14.858046,142.202352C13.958046,141.502352,13.658046,140.502352,13.458046,139.502352C13.058046,139.602352,12.758046,139.602352,12.358046,139.502352C9.658046,139.302352,7.658046,136.802352,7.958046,134.202352C7.958046,133.302352,8.158046,132.602352,8.658046,132.002352C8.258046,131.902352,7.958046,131.602352,7.558046,131.402352C5.958046,129.902352,5.858046,127.402352,7.358046,125.802352C7.558046,125.702352,7.758046,125.402352,7.958046,125.302352C7.858046,125.202352,7.558046,124.902352,7.358046,124.802352C5.658046,123.202352,5.258046,120.402352,6.458046,118.502352C5.558046,118.302352,4.758046,117.602352,4.058046,116.802352C2.858046,115.102352,2.858046,112.802352,3.958046,111.102352C2.558046,110.702352,1.558046,109.502352,1.558046,108.102352C1.558046,107.602352,1.658046,107.102352,1.958046,106.602352C1.558046,106.502352,1.358046,106.102352,1.058046,105.902352C-0.541954,103.502352,-0.341954,100.302352,1.758046,98.402352C0.158046,96.302352,0.558046,93.402352,2.358046,91.702352C2.258046,91.702352,2.258046,91.602352,2.158046,91.502352C1.258046,90.402352,1.158046,88.902352,1.658046,87.602352C1.658046,87.502352,1.558046,87.502352,1.558046,87.402352C0.458046,86.002352,0.858046,84.202352,2.158046,83.002352C2.258046,82.902352,2.358046,82.902352,2.658046,82.802352C1.258046,80.602352,1.958046,77.602352,4.058046,76.102352C5.058046,75.402352,6.158046,75.002352,7.258046,75.002352C6.758046,73.802352,7.158046,72.102352,8.358046,71.302352L8.458046,71.202352C7.058046,69.302352,7.558046,66.702352,9.358046,65.402352C10.058046,64.902352,10.758046,64.702352,11.458046,64.502352C11.058046,63.802352,11.258046,62.802352,11.858046,62.002352C11.458046,61.902352,11.158046,61.502352,10.758046,61.102352C9.758046,59.702352,10.058046,57.602352,11.458046,56.502352C11.558046,56.502352,11.658046,56.402352,11.858046,56.302352C11.758046,56.102352,11.658046,55.602352,11.658046,55.202352C11.658046,54.202352,12.058046,53.502352,12.658046,52.802352C10.758046,52.102352,9.258046,50.202352,9.258046,48.102352C9.258046,45.402352,11.358046,43.002352,14.158046,43.002352C14.058046,42.602352,13.958046,42.102352,13.958046,41.802352L13.958046,41.602352C11.758046,41.602352,9.858046,39.702352,9.858046,37.402352C9.858046,36.302352,10.258046,35.302352,10.958046,34.502352C9.058046,33.402352,7.958046,31.402352,7.858046,29.202352C7.858046,25.602352,10.758046,22.702352,14.158046,22.702352C15.158046,22.702352,16.058046,22.802352,16.758046,23.202352C18.158046,20.702352,20.758046,19.102352,23.758046,19.102352C27.958046,19.102352,31.458046,22.202352,31.958046,26.202352C32.358046,26.102352,32.658046,26.102352,33.058046,26.102352C35.658046,26.102352,37.758046,27.602352,38.758046,29.802352C39.158046,29.702352,39.458046,29.702352,39.858046,29.702352C41.258046,29.702352,42.558046,30.102352,43.758046,30.702352C44.158046,30.702352,44.658046,30.602352,45.158046,30.602352C47.758046,30.602352,50.158046,32.202352,50.858046,34.602352C51.958046,33.702352,53.358046,33.102352,54.958046,33.102352C58.358046,33.102352,61.058046,35.802352,61.058046,39.202352C61.258046,39.002352,61.258046,39.502352,61.158046,39.902352L61.158046,39.902352Z" transform="translate(0,0)" fill="rgb(169,165,117)" stroke="none" stroke-width="1"/></g></g></g></g><g id="em79q5ff4n1l20_tr" transform="translate(128.838000,169.885000) rotate(0)"><g id="em79q5ff4n1l20" transform="translate(0,0)"><g id="em79q5ff4n1l21_tr" transform="translate(0,0) rotate(-1)"><path id="em79q5ff4n1l21" d="M58.020244,114.114961C58.120244,115.614961,57.420244,117.114961,55.920244,117.614961C54.420244,118.214961,52.720244,117.614961,51.820244,116.514961C51.620244,116.714961,51.220244,117.014961,50.820244,117.114961C49.820244,117.514961,48.720244,117.214961,48.120244,116.614961C47.720244,117.714961,46.920244,118.614961,45.720244,119.114961C44.120244,119.614961,42.320244,119.214961,41.320244,118.014961C40.120244,119.114961,38.220244,119.114961,36.920244,117.914961C36.020244,117.214961,35.720244,116.014961,35.920244,114.914961C34.920244,115.114961,33.720244,114.914961,32.820244,114.214961C31.720244,113.214961,31.420244,111.614961,32.220244,110.214961C31.220244,110.314961,30.220244,110.014961,29.320244,109.214961C27.920244,107.814961,27.720244,105.814961,28.720244,104.314961C28.320244,104.214961,28.020244,104.114961,27.720244,103.814961C27.020244,103.114961,26.820244,101.814961,27.320244,100.914961C26.220244,100.414961,25.220244,99.514961,24.720244,98.314961C24.220244,96.714961,24.520244,95.114961,25.420244,93.814961C23.520244,93.814961,22.020244,92.714961,21.720244,90.814961C21.220244,88.914961,22.620244,86.914961,24.420244,86.614961C24.620244,86.614961,24.820244,86.514961,24.920244,86.514961C24.520244,86.114961,24.320244,85.514961,24.220244,85.014961C24.120244,84.114961,24.220244,83.414961,24.420244,82.614961C23.320244,82.514961,22.220244,81.714961,21.720244,80.514961C21.220244,79.114961,21.720244,77.614961,22.820244,76.814961C21.820244,76.614961,20.820244,75.814961,20.420244,74.814961C19.920244,73.414961,20.420244,71.814961,21.520244,70.914961C20.620244,70.514961,19.920244,69.814961,19.520244,68.814961C18.920244,67.314961,19.320244,65.814961,20.120244,64.714961C19.520244,64.614961,18.920244,64.114961,18.620244,63.314961C18.420244,62.614961,18.520244,61.714961,18.820244,61.114961C18.120244,60.614961,17.420244,59.914961,17.120244,59.014961C16.520244,57.414961,16.920244,55.814961,17.720244,54.514961C16.020244,54.514961,14.320244,53.414961,14.020244,51.514961C13.620244,49.514961,14.920244,47.614961,16.920244,47.314961C17.020244,47.314961,17.120244,47.214961,17.420244,47.214961C17.020244,46.814961,16.720244,46.214961,16.520244,45.614961C16.420244,44.714961,16.520244,44.014961,16.920244,43.214961C15.320244,42.814961,13.820244,41.514961,13.420244,39.714961C12.920244,37.314961,14.520244,35.014961,16.920244,34.514961C17.320244,34.514961,17.620244,34.414961,18.020244,34.514961C17.620244,34.114961,17.420244,33.614961,17.320244,33.114961C17.220244,32.414961,17.320244,31.714961,17.720244,31.214961C15.820244,30.714961,14.220244,29.214961,13.820244,27.214961C13.320244,24.714961,14.520244,22.314961,16.720244,21.514961C16.720244,21.114961,16.620244,20.914961,16.620244,20.614961C16.020244,17.714961,17.820244,15.014961,20.720244,14.414961C22.220244,14.214961,23.720244,14.514961,24.820244,15.414961C25.220244,14.814961,25.720244,14.414961,26.320244,14.214961C26.220244,13.714961,25.920244,13.214961,25.820244,12.714961C25.220244,9.314961,27.320244,6.114961,30.720244,5.514961C31.920244,5.314961,33.120244,5.414961,34.220244,5.714961C34.420244,3.014961,36.320244,0.714961,39.220244,0.114961C42.320244,-0.485039,45.320244,1.314961,46.320244,4.314961C46.520244,4.214961,46.920244,4.114961,47.220244,4.114961C48.720244,3.714961,50.220244,4.114961,51.320244,5.014961C52.320244,3.514961,52.920244,2.614961,55.820244,2.014961C58.720244,1.414961,56.520244,6.214961,57.420244,10.014961C58.120244,13.914961,60.520244,15.314961,58.520244,15.714961C56.520244,16.114961,58.320244,15.814961,58.120244,15.814961C58.820244,16.414961,59.320244,17.314961,59.620244,18.414961C60.120244,20.914961,58.520244,23.414961,56.020244,23.914961C55.620244,24.014961,55.420244,24.014961,55.120244,24.014961L55.120244,24.414961C55.520244,25.914961,54.620244,27.414961,53.220244,27.914961C53.320244,28.114961,53.320244,28.414961,53.420244,28.614961C53.620244,30.014961,52.820244,31.314961,51.420244,31.614961L51.320244,31.714961C52.220244,32.314961,52.920244,33.214961,53.220244,34.414961C53.420244,35.614961,53.120244,36.914961,52.520244,37.914961C53.620244,38.314961,54.620244,39.314961,54.920244,40.614961C55.320244,42.614961,54.020244,44.514961,52.020244,45.014961L51.520244,45.014961C51.920244,45.514961,52.120244,46.014961,52.220244,46.614961C52.420244,47.614961,52.220244,48.514961,51.720244,49.314961C53.220244,49.914961,54.320244,51.314961,54.720244,52.914961C55.220244,55.114961,54.120244,57.414961,52.320244,58.514961C52.720244,58.714961,52.920244,59.214961,53.020244,59.914961C53.420244,61.314961,52.420244,62.614961,51.020244,63.014961L50.920244,63.014961C51.920244,63.614961,52.520244,64.614961,52.820244,65.714961C53.020244,66.914961,52.820244,68.314961,52.120244,69.214961C53.320244,69.714961,54.220244,70.714961,54.520244,71.914961C55.020244,73.914961,53.620244,75.814961,51.620244,76.314961L51.220244,76.314961C51.620244,76.814961,51.820244,77.314961,51.920244,77.914961C52.120244,78.814961,51.920244,79.814961,51.420244,80.514961C53.620244,80.114961,55.820244,81.414961,56.520244,83.414961C57.420244,85.914961,56.320244,88.514961,53.920244,89.514961L53.720244,89.514961C53.920244,90.114961,53.920244,90.714961,53.720244,91.214961C55.320244,91.114961,56.920244,92.114961,57.620244,93.814961C58.320244,95.514961,57.620244,97.714961,56.020244,98.514961C56.620244,98.914961,57.020244,99.514961,57.420244,100.114961C57.620244,100.814961,57.620244,101.514961,57.420244,102.214961C58.320244,102.114961,59.120244,102.414961,59.820244,103.114961C60.720244,103.814961,60.920244,105.114961,60.820244,106.114961C61.020244,106.214961,61.320244,106.314961,61.520244,106.614961C61.720244,106.814961,62.020244,107.214961,62.120244,107.514961C63.120244,107.314961,64.220244,107.514961,65.020244,108.414961C66.420244,109.614961,66.420244,111.614961,65.120244,113.014961C64.120244,114.014961,62.620244,114.214961,61.420244,113.614961C61.220244,114.114961,60.820244,114.514961,60.320244,114.714961C59.520244,115.114961,58.520244,114.914961,58.020244,114.114961L58.020244,114.114961Z" transform="translate(0,0)" fill="rgb(154,150,116)" stroke="none" stroke-width="1"/></g><g id="em79q5ff4n1l22_tr" transform="translate(0,0) rotate(8)"><path id="em79q5ff4n1l22" d="M40.320244,126.114961C40.420244,127.614961,39.420244,129.014961,37.920244,129.514961C36.420244,130.014961,34.820244,129.414961,33.920244,128.114961C33.720244,128.314961,33.320244,128.614961,32.920244,128.714961C31.920244,129.114961,30.820244,128.814961,30.220244,128.114961C29.720244,129.114961,28.820244,130.014961,27.720244,130.314961C26.120244,130.814961,24.320244,130.314961,23.320244,129.114961C22.120244,130.114961,20.220244,130.014961,18.920244,128.714961C18.220244,127.814961,17.920244,126.714961,18.220244,125.614961C17.120244,125.814961,16.020244,125.614961,15.120244,124.714961C14.120244,123.614961,14.020244,122.014961,14.720244,120.714961C13.720244,120.714961,12.720244,120.314961,12.020244,119.514961C10.620244,118.314961,10.520244,116.114961,11.520244,114.614961C11.320244,114.514961,10.920244,114.414961,10.620244,114.114961C9.920244,113.214961,9.920244,112.114961,10.420244,111.214961C9.320244,110.614961,8.420244,109.714961,8.020244,108.314961C7.520244,106.814961,7.920244,105.114961,8.920244,103.914961C7.220244,103.914961,5.520244,102.514961,5.320244,100.814961C5.120244,98.814961,6.420244,96.914961,8.420244,96.714961C8.520244,96.614961,8.620244,96.614961,8.920244,96.614961C8.520244,96.214961,8.320244,95.614961,8.220244,95.014961C8.120244,94.314961,8.320244,93.414961,8.620244,92.814961C7.520244,92.614961,6.520244,91.814961,6.120244,90.614961C5.620244,89.214961,6.220244,87.714961,7.320244,86.914961C6.320244,86.714961,5.420244,85.914961,5.120244,84.814961C4.620244,83.314961,5.220244,81.814961,6.320244,81.114961C5.420244,80.614961,4.820244,79.914961,4.420244,78.914961C3.920244,77.414961,4.420244,75.914961,5.420244,74.914961C4.720244,74.714961,4.220244,74.014961,3.920244,73.414961C3.720244,72.514961,3.820244,71.814961,4.320244,71.214961C3.620244,70.714961,2.920244,69.814961,2.720244,69.014961C2.220244,67.414961,2.620244,65.614961,3.620244,64.514961C1.920244,64.514961,0.220244,63.114961,0.020244,61.414961C-0.179756,59.414961,1.120244,57.514961,3.120244,57.314961C3.220244,57.214961,3.320244,57.214961,3.620244,57.214961C3.220244,56.814961,3.020244,56.214961,2.920244,55.614961C2.820244,54.714961,3.020244,53.914961,3.420244,53.214961C1.820244,52.714961,0.420244,51.314961,0.220244,49.514961C-0.179756,47.114961,1.420244,44.914961,3.920244,44.514961L4.920244,44.514961C4.720244,44.114961,4.420244,43.614961,4.320244,43.114961C4.320244,42.514961,4.420244,41.714961,4.820244,41.214961C2.920244,40.714961,1.620244,39.114961,1.220244,37.014961C0.820244,34.614961,2.220244,32.414961,4.420244,31.514961C4.320244,31.114961,4.320244,30.914961,4.220244,30.614961C3.820244,27.714961,5.820244,25.014961,8.720244,24.614961C10.220244,24.414961,11.720244,24.814961,12.820244,25.714961C13.220244,25.214961,13.820244,24.814961,14.420244,24.614961C14.220244,24.214961,14.020244,23.614961,14.020244,23.114961C13.520244,19.714961,15.720244,16.614961,19.120244,16.114961C20.320244,16.014961,21.620244,16.114961,22.620244,16.614961C23.020244,14.014961,25.120244,11.714961,27.820244,11.314961C31.020244,10.914961,33.920244,12.914961,34.620244,15.914961C35.020244,15.814961,35.220244,15.814961,35.620244,15.714961C37.120244,15.614961,38.620244,15.914961,39.720244,16.814961C40.720244,15.414961,42.320244,14.414961,44.320244,14.214961C48.020244,13.614961,51.620244,16.214961,52.120244,20.014961C52.720244,23.914961,50.120244,27.314961,46.320244,28.014961L45.820244,28.014961C46.520244,28.714961,47.020244,29.614961,47.220244,30.714961C47.620244,33.214961,45.820244,35.714961,43.220244,36.014961L42.520244,36.014961L42.520244,36.414961C42.720244,37.914961,41.820244,39.414961,40.420244,39.814961C40.520244,40.014961,40.520244,40.314961,40.620244,40.514961C40.720244,42.014961,39.720244,43.214961,38.420244,43.514961L38.220244,43.514961C39.120244,44.114961,39.820244,45.114961,39.920244,46.414961C40.120244,47.614961,39.820244,48.914961,38.920244,49.914961C40.120244,50.414961,41.020244,51.414961,41.120244,52.814961C41.520244,54.814961,40.120244,56.714961,38.120244,56.914961L37.620244,56.914961C38.020244,57.414961,38.220244,57.914961,38.220244,58.514961C38.420244,59.514961,38.120244,60.514961,37.620244,61.214961C39.120244,61.914961,40.120244,63.314961,40.320244,65.114961C40.720244,67.314961,39.620244,69.514961,37.620244,70.414961C38.020244,70.814961,38.320244,71.314961,38.320244,71.914961C38.520244,73.314961,37.620244,74.614961,36.220244,74.814961L36.120244,74.914961C37.020244,75.514961,37.620244,76.514961,37.820244,77.814961C37.920244,79.014961,37.620244,80.314961,36.820244,81.214961C37.920244,81.714961,38.820244,82.814961,39.020244,84.114961C39.220244,86.114961,37.920244,88.014961,35.920244,88.314961L35.520244,88.314961C35.720244,88.814961,36.020244,89.314961,36.120244,89.914961C36.220244,90.914961,36.020244,91.814961,35.520244,92.514961C37.620244,92.314961,39.720244,93.514961,40.520244,95.614961C41.220244,98.114961,39.920244,100.714961,37.420244,101.414961L37.320244,101.514961C37.520244,102.114961,37.420244,102.714961,37.220244,103.214961C38.820244,103.214961,40.420244,104.214961,40.920244,105.914961C41.520244,107.814961,40.720244,109.814961,38.920244,110.614961C39.520244,111.014961,40.020244,111.614961,40.320244,112.214961C40.420244,112.914961,40.420244,113.714961,40.320244,114.314961C41.020244,114.314961,41.920244,114.714961,42.520244,115.314961C43.220244,116.214961,43.520244,117.314961,43.220244,118.414961C43.420244,118.514961,43.720244,118.614961,43.920244,118.914961C44.120244,119.114961,44.420244,119.514961,44.420244,119.814961C45.520244,119.714961,46.520244,120.014961,47.420244,120.814961C48.620244,122.214961,48.520244,124.214961,47.320244,125.414961C46.220244,126.414961,44.720244,126.514961,43.420244,125.914961C43.220244,126.414961,42.820244,126.614961,42.320244,126.914961C41.720244,127.214961,40.820244,126.814961,40.320244,126.114961L40.320244,126.114961Z" transform="translate(0,0)" fill="rgb(169,165,117)" stroke="none" stroke-width="1"/></g></g></g><g id="em79q5ff4n1l23" transform="matrix(1 0 0 1 3.34215000000000 109.77600000000000)"><path id="em79q5ff4n1l24" d="M162.915901,19.623760C163.815901,18.623760,163.615901,17.023760,162.515901,16.123760C161.515901,15.223760,159.915901,15.423760,158.915901,16.323760C158.715901,16.723760,158.515901,17.023760,158.415901,17.423760C157.815901,17.423760,157.215901,17.623760,156.715901,17.923760C156.615901,17.023760,156.215901,16.223760,155.515901,15.523760C154.315901,14.523760,152.515901,14.423760,151.315901,15.323760C151.115901,14.823760,150.715901,14.323760,150.215901,13.923760C148.815901,12.723760,147.015901,12.423760,145.315901,12.923760C145.215901,11.223760,144.415901,9.523760,143.115901,8.423760C141.615901,7.223760,139.915901,6.523760,138.115901,6.823760C137.715901,5.723760,137.115901,4.723760,136.115901,3.823760C133.715901,1.723760,130.315901,1.723760,127.915901,3.623760C126.815901,2.923760,125.415901,2.723760,124.315901,3.123760C124.115901,2.523760,123.615901,1.923760,122.915901,1.423760C120.915901,-0.476240,117.715901,-0.176240,115.915901,1.923760C115.415901,2.523760,115.015901,3.123760,114.815901,3.923760L114.415901,3.523760C112.915901,2.323760,110.815901,2.423760,109.415901,3.923760C109.415901,4.023760,109.315901,4.123760,109.215901,4.323760C109.115901,3.923760,108.815901,3.723760,108.515901,3.423760C106.915901,1.923760,104.315901,2.223760,102.815901,3.823760C102.715901,4.023760,102.615901,4.223760,102.415901,4.423760C101.715901,2.923760,100.315901,1.923760,98.515901,1.723760C97.115901,1.623760,95.915901,1.923760,94.915901,2.723760C94.315901,1.223760,92.915901,0.223760,91.215901,0.023760C90.015901,-0.076240,88.715901,0.123760,87.715901,0.923760C87.215901,0.523760,86.615901,0.323760,86.015901,0.223760C84.515901,0.123760,83.115901,0.723760,82.415901,1.923760C81.515901,1.023760,80.315901,0.423760,79.015901,0.323760C76.815901,0.123760,74.615901,0.923760,73.415901,2.723760C72.915901,2.323760,72.315901,2.123760,71.515901,2.023760C69.015901,1.823760,66.815901,3.523760,66.515901,6.023760C66.115901,5.823760,65.615901,5.623760,65.315901,5.623760C63.815901,5.523760,62.415901,6.223760,61.915901,7.623760C61.415901,7.223760,60.715901,7.023760,60.015901,7.123760C58.115901,7.123760,56.615901,8.623760,56.615901,10.523760C56.015901,10.523760,55.515901,10.623760,55.015901,10.923760C53.815901,9.423760,51.915901,8.423760,49.815901,8.423760C47.415901,8.423760,45.315901,9.823760,44.215901,11.823760C43.615901,11.423760,42.815901,11.323760,42.115901,11.323760C39.915901,11.323760,38.015901,12.823760,37.415901,14.923760C36.815901,14.023760,35.815901,13.523760,34.715901,13.723760C33.315901,13.723760,32.115901,14.623760,31.615901,15.723760C31.015901,15.323760,30.215901,15.123760,29.415901,15.123760C27.215901,15.123760,25.415901,17.023760,25.315901,19.123760C24.615901,18.923760,23.715901,18.623760,22.815901,18.623760C19.715901,18.723760,17.115901,20.823760,16.515901,23.723760C15.915901,23.523760,15.315901,23.323760,14.615901,23.323760C12.215901,23.323760,10.415901,25.323760,10.415901,27.723760C10.415901,28.623760,10.815901,29.423760,11.315901,30.223760C9.415901,30.823760,8.115901,32.623760,8.115901,34.723760C7.615901,34.623760,7.215901,34.623760,6.715901,34.623760C4.015901,34.623760,1.815901,36.723760,2.015901,39.523760C2.015901,40.923760,2.615901,42.223760,3.615901,43.123760C3.015901,43.723760,2.715901,44.523760,2.715901,45.323760C2.715901,45.923760,2.815901,46.523760,3.215901,47.023760C1.115901,48.523760,0.515901,51.223760,1.615901,53.523760C0.015901,54.523760,-0.484099,56.623760,0.515901,58.223760C0.915901,58.823760,1.415901,59.223760,1.915901,59.423760C1.015901,60.623760,1.015901,62.123760,2.015901,63.423760C2.215901,63.823760,2.515901,64.023760,2.915901,64.123760C1.015901,65.723760,0.715901,68.623760,2.215901,70.623760L3.115901,71.523760C2.515901,72.023760,2.115901,73.023760,2.115901,73.923760C2.115901,74.823760,2.515901,75.623760,3.015901,76.323760C2.015901,77.223760,1.515901,78.423760,1.515901,79.923760C1.515901,82.523760,3.615901,84.623760,6.415901,84.623760C6.915901,84.623760,7.315901,84.523760,7.815901,84.423760C7.815901,87.023760,10.015901,89.123760,12.715901,89.123760C13.115901,89.123760,13.615901,89.023760,13.915901,88.923760L13.915901,89.123760C13.915901,90.723760,14.915901,92.223760,16.315901,92.823760L16.315901,93.723760C16.315901,97.323760,19.315901,100.223760,22.915901,100.223760C24.815901,100.223760,26.415901,99.323760,27.615901,98.123760C28.215901,99.323760,29.615901,100.123760,31.115901,100.123760C31.615901,100.123760,32.215901,100.023760,32.715901,99.723760C33.115901,101.323760,34.415901,102.423760,36.215901,102.423760C36.615901,102.423760,37.115901,102.323760,37.415901,102.223760C37.515901,104.923760,39.815901,107.123760,42.515901,107.123760C43.215901,107.123760,44.015901,106.923760,44.615901,106.623760C45.715901,108.523760,47.815901,109.823760,50.215901,109.723760C53.715901,109.723760,56.415901,107.123760,56.715901,103.723760C57.815901,104.323760,59.115901,104.723760,60.415901,104.723760L61.015901,104.723760C60.615901,105.423760,60.515901,106.323760,60.515901,107.223760C60.515901,110.823760,63.515901,113.723760,67.115901,113.723760C69.515901,113.723760,71.615901,112.323760,72.715901,110.523760C73.615901,111.723760,74.915901,112.723760,76.715901,112.723760C76.715901,114.623760,78.215901,116.123760,80.215901,116.123760C80.815901,116.123760,81.415901,115.923760,82.115901,115.523760C82.615901,116.923760,84.015901,117.623760,85.515901,117.523760C85.915901,117.423760,86.415901,117.323760,86.715901,117.023760C87.115901,119.523760,89.315901,121.223760,91.815901,120.923760C92.415901,120.823760,93.015901,120.723760,93.715901,120.323760C94.915901,121.923760,97.115901,122.823760,99.215901,122.523760C100.615901,122.323760,101.715901,121.623760,102.615901,120.823760C103.515901,122.023760,104.815901,122.723760,106.315901,122.423760C106.515901,122.423760,106.915901,122.323760,107.315901,122.223760L107.315901,122.623760C107.715901,125.223760,110.015901,127.123760,112.815901,126.723760C114.515901,126.523760,115.915901,125.323760,116.515901,123.823760C117.515901,124.523760,118.715901,124.923760,120.115901,124.823760C121.815901,124.623760,123.215901,123.423760,123.815901,121.923760C123.915901,122.123760,124.015901,122.323760,124.215901,122.523760C125.815901,124.123760,128.315901,124.223760,130.015901,122.723760C130.415901,122.323760,130.715901,121.823760,131.015901,121.323760C132.215901,122.323760,134.115901,122.223760,135.415901,121.123760C135.815901,120.923760,136.015901,120.523760,136.315901,120.023760C138.215901,122.023760,141.315901,122.123760,143.315901,120.423760C143.915901,119.823760,144.315901,119.223760,144.515901,118.523760C145.715901,118.923760,147.015901,118.623760,148.115901,117.923760C150.515901,119.823760,153.915901,119.623760,156.315901,117.523760C157.315901,116.623760,157.915901,115.623760,158.215901,114.523760C159.915901,114.623760,161.815901,114.123760,163.215901,112.823760C164.615901,111.623760,165.315901,109.923760,165.315901,108.323760C166.915901,108.823760,168.815901,108.423760,170.215901,107.223760C171.315901,106.223760,171.815901,104.823760,171.815901,103.523760C174.015901,103.423760,175.815901,101.523760,175.715901,99.323760L175.715901,99.123760C176.215901,99.223760,176.615901,99.323760,176.915901,99.323760C179.615901,99.223760,181.815901,97.123760,181.815901,94.423760C182.215901,94.523760,182.715901,94.623760,183.215901,94.623760C185.815901,94.623760,187.915901,92.423760,187.915901,89.723760C187.915901,88.223760,187.315901,87.023760,186.315901,86.123760C186.815901,85.523760,187.215901,84.623760,187.215901,83.723760C187.215901,82.823760,186.715901,82.023760,186.115901,81.323760C186.515901,81.123760,186.715901,80.823760,187.015901,80.423760C188.515901,78.423760,188.115901,75.523760,186.115901,74.123760C186.515901,73.923760,186.715901,73.623760,187.015901,73.223760C188.015901,72.023760,187.915901,70.323760,187.015901,69.323760C187.615901,68.923760,188.115901,68.423760,188.415901,67.923760C189.415901,66.223760,188.815901,64.223760,187.215901,63.223760C188.315901,61.023760,187.615901,58.223760,185.515901,56.923760C185.915901,56.423760,186.015901,55.823760,186.015901,55.023760C186.015901,54.123760,185.615901,53.423760,185.115901,52.823760C186.115901,51.923760,186.715901,50.723760,186.715901,49.223760C186.615901,46.623760,184.515901,44.323760,181.715901,44.523760C181.315901,44.523760,180.815901,44.523760,180.515901,44.623760C180.415901,42.523760,179.015901,40.723760,177.015901,40.223760C177.615901,39.523760,177.915901,38.623760,177.915901,37.623760C177.915901,37.023760,177.815901,36.423760,177.515901,35.923760C179.615901,33.223760,179.215901,29.323760,176.615901,27.123760C175.615901,26.223760,174.515901,25.723760,173.415901,25.523760C173.215901,24.623760,172.815901,23.823760,172.015901,23.123760C170.415901,21.623760,168.015901,21.723760,166.415901,23.223760L166.415901,23.123760C165.915901,22.723760,165.315901,22.423760,164.515901,22.223760C163.615901,21.023760,163.415901,20.223760,162.915901,19.623760L162.915901,19.623760Z" fill="rgb(169,165,117)" stroke="none" stroke-width="1"/><path id="em79q5ff4n1l25" d="M141.515901,65.323760C141.515901,65.523760,141.515901,65.823760,141.615901,66.023760C141.615901,67.623760,140.215901,69.023760,138.615901,69.023760C137.115901,69.023760,135.915901,67.923760,135.615901,66.523760C135.115901,67.023760,134.415901,67.423760,133.515901,67.523760C131.915901,67.523760,130.515901,66.123760,130.515901,64.523760C130.515901,63.423760,131.115901,62.523760,132.015901,62.023760C131.415901,61.523760,131.015901,60.923760,130.915901,60.123760C129.815901,60.123760,128.815901,59.623760,128.015901,59.023760C127.515901,60.123760,126.315901,60.923760,125.015901,60.923760C123.015901,60.923760,121.515901,59.423760,121.515901,57.423760L121.515901,56.723760C121.115901,56.823760,120.815901,56.823760,120.315901,56.823760C117.415901,56.923760,115.115901,54.623760,115.015901,51.623760C115.015901,48.723760,117.215901,46.523760,120.015901,46.323760C119.415901,45.623760,119.115901,44.723760,119.015901,43.823760C119.015901,41.923760,120.215901,40.423760,121.915901,39.923760C123.915901,34.123760,129.415901,29.923760,135.715901,29.923760C144.215901,29.823760,157.615901,41.223760,157.715901,50.323760C157.815901,58.523760,151.215901,65.223760,143.015901,65.223760C142.515901,65.323760,142.015901,65.323760,141.515901,65.323760Z" fill="rgb(154,150,116)" stroke="none" stroke-width="1"/><path id="em79q5ff4n1l26" d="M145.415901,64.823760C145.515901,65.023760,145.615901,65.423760,145.615901,65.723760C145.715901,67.423760,144.415901,68.923760,142.615901,69.123760C141.015901,69.223760,139.515901,68.123760,139.215901,66.523760C138.715901,67.223760,137.815901,67.623760,137.015901,67.723760C135.315901,67.823760,133.615901,66.523760,133.615901,64.723760C133.515901,63.523760,134.115901,62.523760,135.015901,61.823760C134.415901,61.323760,133.915901,60.723760,133.815901,59.823760C132.615901,59.923760,131.415901,59.623760,130.715901,58.823760C130.115901,60.023760,129.015901,60.923760,127.515901,61.023760C125.515901,61.123760,123.615901,59.523760,123.515901,57.523760C123.515901,57.123760,123.515901,56.923760,123.615901,56.623760C123.115901,56.723760,122.715901,56.823760,122.215901,56.823760C119.115901,56.923760,116.415901,54.623760,116.115901,51.523760C116.015901,48.423760,118.115901,45.823760,121.115901,45.423760C120.515901,44.723760,120.115901,43.823760,120.015901,42.823760C119.915901,40.823760,121.115901,39.123760,122.915901,38.423760C124.615901,32.123760,130.415901,27.323760,137.215901,26.823760C146.315901,26.323760,161.515901,37.923760,162.115901,47.623760C162.715901,56.423760,156.015901,64.023760,147.215901,64.623760C146.615901,64.823760,146.115901,64.823760,145.415901,64.823760L145.415901,64.823760Z" fill="rgb(169,165,117)" stroke="none" stroke-width="1"/><path id="em79q5ff4n1l27" d="M30.915901,63.523760C30.815901,63.723760,30.715901,64.023760,30.515901,64.223760C29.815901,65.623760,27.915901,66.123760,26.515901,65.323760C25.115901,64.623760,24.615901,62.923760,25.315901,61.623760C24.615901,61.823760,23.715901,61.823760,22.815901,61.523760C21.415901,60.623760,20.915901,58.923760,21.715901,57.423760C22.315901,56.523760,23.315901,55.923760,24.315901,55.923760C24.115901,55.323760,23.915901,54.523760,24.315901,53.823760C23.315901,53.323760,22.715901,52.423760,22.315901,51.423760C21.315901,52.023760,19.915901,52.123760,18.815901,51.523760C17.115901,50.523760,16.415901,48.423760,17.415901,46.823760C17.515901,46.623760,17.615901,46.323760,17.815901,46.223760C17.415901,46.123760,17.115901,46.023760,16.715901,45.723760C14.215901,44.323760,13.215901,41.123760,14.715901,38.523760C16.115901,36.023760,19.115901,35.123760,21.715901,36.323760C21.515901,35.423760,21.715901,34.623760,22.115901,33.723760C23.015901,32.123760,24.815901,31.323760,26.515901,31.723760C31.115901,27.723760,37.915901,26.823760,43.515901,30.023760C50.815901,34.123760,56.815901,50.823760,52.315901,58.723760C48.315901,65.823760,39.415901,68.423760,32.115901,64.323760C31.615901,64.023760,31.315901,63.823760,30.915901,63.523760L30.915901,63.523760Z" fill="rgb(154,150,116)" stroke="none" stroke-width="1"/><path id="em79q5ff4n1l28" d="M34.615901,65.123760C34.515901,65.323760,34.515901,65.623760,34.415901,66.023760C33.515901,67.523760,31.715901,68.123760,30.015901,67.423760C28.615901,66.723760,27.915901,65.023760,28.515901,63.523760C27.615901,63.723760,26.815901,63.723760,25.915901,63.423760C24.315901,62.723760,23.715901,60.723760,24.415901,59.223760C24.915901,58.123760,26.015901,57.523760,27.115901,57.323760C26.715901,56.723760,26.615901,55.823760,26.915901,55.123760C25.915901,54.623760,25.215901,53.623760,24.815901,52.623760C23.715901,53.523760,22.215901,53.623760,20.915901,53.023760C19.015901,52.123760,18.315901,49.823760,19.215901,48.023760C19.315901,47.623760,19.415901,47.523760,19.715901,47.323760C19.215901,47.223760,18.815901,47.123760,18.515901,46.823760C15.615901,45.423760,14.415901,41.923760,15.915901,39.223760C17.315901,36.523760,20.415901,35.223760,23.215901,36.323760C23.015901,35.423760,23.115901,34.423760,23.615901,33.423760C24.515901,31.723760,26.315901,30.823760,28.115901,31.023760C32.815901,26.523760,40.215901,25.223760,46.415901,28.123760C54.515901,32.223760,61.915901,49.723760,57.615901,58.623760C53.715901,66.423760,44.015901,69.823760,36.215901,65.823760C35.615901,65.623760,35.115901,65.423760,34.615901,65.123760L34.615901,65.123760Z" fill="rgb(169,165,117)" stroke="none" stroke-width="1"/><path id="em79q5ff4n1l29" d="M55.015901,95.523760C55.015901,95.723760,55.115901,96.023760,55.115901,96.423760C55.115901,98.023760,53.715901,99.323760,52.115901,99.423760C50.615901,99.423760,49.415901,98.323760,49.215901,96.823760C48.615901,97.423760,47.815901,97.823760,47.015901,97.823760C45.415901,97.823760,44.015901,96.423760,44.015901,94.823760C44.015901,93.823760,44.615901,92.823760,45.515901,92.323760C44.915901,91.823760,44.515901,91.223760,44.415901,90.423760C43.315901,90.423760,42.315901,90.023760,41.515901,89.323760C41.015901,90.423760,39.915901,91.223760,38.515901,91.223760C36.515901,91.223760,35.015901,89.723760,35.015901,87.723760L35.015901,87.023760C34.615901,87.123760,34.315901,87.223760,33.915901,87.223760C30.915901,87.223760,28.615901,84.823760,28.415901,81.923760C28.415901,79.223760,30.615901,76.823760,33.415901,76.623760C32.815901,76.023760,32.515901,75.123760,32.515901,74.123760C32.515901,72.423760,33.615901,70.723760,35.215901,70.223760C37.215901,64.523760,42.715901,60.423760,49.015901,60.223760C57.515901,60.123760,70.915901,71.623760,71.015901,80.623760C71.115901,88.823760,64.515901,95.523760,56.315901,95.723760C56.015901,95.623760,55.515901,95.523760,55.015901,95.523760Z" fill="rgb(154,150,116)" stroke="none" stroke-width="1"/><path id="em79q5ff4n1l30" d="M59.015901,95.023760C59.115901,95.223760,59.215901,95.623760,59.215901,95.923760C59.315901,97.623760,58.015901,99.123760,56.215901,99.323760C54.615901,99.423760,53.115901,98.323760,52.815901,96.723760C52.315901,97.423760,51.415901,97.923760,50.615901,97.923760C48.915901,98.023760,47.415901,96.723760,47.215901,94.923760C47.115901,93.823760,47.715901,92.723760,48.615901,92.023760C48.015901,91.623760,47.515901,90.923760,47.415901,90.123760C46.215901,90.123760,45.215901,89.723760,44.315901,89.023760C43.815901,90.223760,42.615901,91.123760,41.115901,91.223760C39.115901,91.323760,37.215901,89.723760,37.115901,87.723760C37.115901,87.523760,37.115901,87.123760,37.215901,86.823760C36.715901,86.923760,36.315901,87.023760,35.815901,87.023760C32.715901,87.223760,30.015901,84.823760,29.715901,81.723760C29.615901,78.723760,31.815901,76.023760,34.815901,75.623760C34.115901,75.023760,33.715901,74.023760,33.715901,73.023760C33.615901,71.023760,34.715901,69.323760,36.415901,68.623760C38.315901,62.323760,43.915901,57.523760,50.715901,57.223760C59.915901,56.623760,75.015901,68.123760,75.615901,78.023760C76.215901,86.823760,69.515901,94.423760,60.715901,94.923760C60.115901,95.023760,59.615901,95.023760,59.015901,95.023760L59.015901,95.023760Z" fill="rgb(169,165,117)" stroke="none" stroke-width="1"/><path id="em79q5ff4n1l31" d="M78.815901,75.623760C78.915901,75.823760,79.015901,76.123760,79.215901,76.323760C79.715901,77.823760,78.815901,79.523760,77.315901,80.023760C75.815901,80.523760,74.315901,79.823760,73.715901,78.423760C73.315901,79.123760,72.715901,79.823760,71.815901,80.023760C70.315901,80.623760,68.715901,79.823760,68.115901,78.123760C67.915901,77.123760,68.115901,76.023760,68.715901,75.223760C68.115901,75.023760,67.515901,74.523760,67.115901,73.823760C66.115901,74.023760,65.015901,74.023760,64.115901,73.623760C64.015901,74.823760,63.115901,76.023760,61.715901,76.323760C60.015901,76.923760,58.015901,75.923760,57.315901,74.123760C57.215901,73.923760,57.215901,73.623760,57.215901,73.423760C56.815901,73.623760,56.515901,73.823760,56.115901,73.923760C53.415901,74.923760,50.315901,73.423760,49.415901,70.523760C48.515901,67.923760,49.915901,65.023760,52.415901,63.923760C51.715901,63.423760,51.215901,62.723760,50.815901,61.823760C50.315901,60.123760,50.915901,58.323760,52.315901,57.323760C52.415901,51.223760,56.415901,45.623760,62.515901,43.623760C70.515901,40.923760,86.815901,47.723760,89.615901,56.323760C92.215901,64.123760,88.015901,72.523760,80.315901,75.123760C79.815901,75.323760,79.315901,75.523760,78.815901,75.623760L78.815901,75.623760Z" fill="rgb(154,150,116)" stroke="none" stroke-width="1"/><path id="em79q5ff4n1l32" d="M82.515901,73.823760C82.615901,74.023760,82.715901,74.323760,82.915901,74.723760C83.515901,76.323760,82.815901,78.223760,81.215901,78.823760C79.615901,79.423760,78.015901,78.723760,77.215901,77.323760C76.815901,78.023760,76.215901,78.823760,75.315901,79.223760C73.715901,79.823760,71.815901,79.023760,71.215901,77.323760C70.815901,76.223760,71.015901,75.123760,71.715901,74.223760C71.015901,74.023760,70.315901,73.523760,69.815901,72.723760C68.815901,73.223760,67.615901,73.123760,66.615901,72.723760C66.515901,74.123760,65.615901,75.223760,64.215901,75.823760C62.315901,76.523760,60.115901,75.623760,59.315901,73.623760C59.215901,73.423760,59.215901,73.123760,59.115901,72.923760C58.915901,73.123760,58.415901,73.423760,58.015901,73.523760C55.015901,74.623760,51.815901,73.323760,50.515901,70.323760C49.415901,67.423760,50.715901,64.223760,53.515901,63.023760C52.615901,62.523760,52.015901,61.823760,51.615901,60.923760C50.915901,59.023760,51.515901,57.023760,52.815901,55.923760C52.715901,49.323760,56.515901,43.123760,63.015901,40.523760C71.515901,37.323760,89.515901,43.623760,93.015901,52.723760C96.215901,61.023760,92.315901,70.223760,83.915901,73.523760C83.515901,73.623760,83.015901,73.723760,82.515901,73.823760L82.515901,73.823760Z" fill="rgb(169,165,117)" stroke="none" stroke-width="1"/><path id="em79q5ff4n1l33" d="M112.615901,101.223760C112.715901,101.423760,112.715901,101.723760,112.715901,101.923760C112.715901,103.523760,111.515901,104.923760,109.715901,104.923760C108.215901,104.923760,107.015901,103.823760,106.815901,102.323760C106.215901,102.923760,105.415901,103.323760,104.615901,103.323760C103.015901,103.423760,101.615901,102.123760,101.615901,100.423760C101.615901,99.323760,102.215901,98.423760,103.115901,97.823760C102.515901,97.423760,102.115901,96.823760,102.015901,95.923760C100.915901,95.923760,100.015901,95.523760,99.315901,94.923760C98.715901,95.923760,97.615901,96.823760,96.215901,96.823760C94.315901,96.823760,92.715901,95.223760,92.715901,93.323760L92.715901,92.623760C92.315901,92.723760,92.015901,92.723760,91.615901,92.723760C88.615901,92.723760,86.315901,90.523760,86.315901,87.523760C86.215901,84.623760,88.415901,82.423760,91.215901,82.223760C90.715901,81.523760,90.315901,80.623760,90.315901,79.723760C90.315901,77.823760,91.415901,76.323760,93.015901,75.723760C95.015901,70.023760,100.515901,65.923760,106.915901,65.923760C115.215901,65.823760,128.815901,77.223760,128.815901,86.323760C128.915901,94.523760,122.315901,101.223760,114.115901,101.223760L112.615901,101.223760L112.615901,101.223760Z" fill="rgb(154,150,116)" stroke="none" stroke-width="1"/><path id="em79q5ff4n1l34" d="M116.715901,100.723760C116.715901,100.923760,116.815901,101.223760,116.815901,101.623760C116.915901,103.323760,115.615901,104.823760,113.815901,105.023760C112.215901,105.123760,110.815901,104.023760,110.415901,102.423760C109.915901,103.023760,109.215901,103.523760,108.215901,103.623760C106.515901,103.623760,105.015901,102.423760,104.815901,100.623760C104.715901,99.423760,105.315901,98.423760,106.215901,97.723760C105.615901,97.223760,105.115901,96.623760,105.015901,95.723760C103.915901,95.823760,102.815901,95.523760,101.915901,94.723760C101.415901,95.923760,100.215901,96.823760,98.815901,96.923760C96.715901,97.023760,94.915901,95.423760,94.815901,93.323760C94.715901,93.123760,94.815901,92.823760,94.815901,92.623760C94.415901,92.723760,93.915901,92.723760,93.415901,92.823760C90.315901,92.923760,87.615901,90.623760,87.415901,87.523760C87.215901,84.423760,89.415901,81.823760,92.415901,81.423760C91.815901,80.723760,91.315901,79.823760,91.315901,78.823760C91.215901,76.823760,92.315901,75.123760,94.015901,74.423760C95.915901,68.123760,101.515901,63.323760,108.415901,62.823760C117.515901,62.323760,132.715901,73.923760,133.215901,83.623760C133.815901,92.423760,127.115901,100.023760,118.315901,100.623760C117.815901,100.723760,117.215901,100.723760,116.715901,100.723760Z" fill="rgb(169,165,117)" stroke="none" stroke-width="1"/><path id="em79q5ff4n1l35" d="M51.015901,46.723760C51.115901,46.923760,51.115901,47.123760,51.115901,47.323760C51.115901,48.323760,50.215901,49.223760,49.215901,49.223760C48.215901,49.223760,47.315901,48.523760,47.215901,47.623760C47.015901,48.023760,46.315901,48.223760,45.815901,48.223760C44.715901,48.223760,43.815901,47.323760,43.815901,46.323760C43.815901,45.623760,44.215901,44.923760,44.815901,44.623760C44.415901,44.423760,44.215901,44.023760,44.115901,43.523760C43.515901,43.523760,42.715901,43.123760,42.415901,42.823760C42.015901,43.523760,41.315901,44.023760,40.415901,44.023760C39.215901,44.023760,38.015901,43.023760,38.015901,41.823760C38.015901,41.623760,38.015901,41.423760,38.115901,41.323760C37.915901,41.323760,37.615901,41.423760,37.215901,41.423760C35.315901,41.423760,33.815901,39.823760,33.715901,37.923760C33.715901,36.023760,35.215901,34.523760,36.915901,34.423760C36.515901,33.923760,36.315901,33.423760,36.315901,32.823760C36.315901,31.723760,37.015901,30.623760,38.215901,30.323760C39.415901,26.623760,43.115901,23.823760,47.215901,23.823760C52.715901,23.723760,61.515901,31.123760,61.515901,37.023760C61.515901,42.323760,57.315901,46.723760,51.915901,46.823760C51.815901,46.923760,51.415901,46.923760,51.015901,46.723760L51.015901,46.723760Z" fill="rgb(154,150,116)" stroke="none" stroke-width="1"/><path id="em79q5ff4n1l36" d="M53.815901,46.523760C53.815901,46.623760,53.815901,46.923760,53.915901,47.023760C53.915901,48.223760,53.015901,49.123760,51.915901,49.223760C50.815901,49.323760,49.915901,48.623760,49.815901,47.523760C49.415901,48.023760,48.915901,48.223760,48.315901,48.423760C47.115901,48.423760,46.215901,47.523760,46.115901,46.423760C46.115901,45.723760,46.515901,44.923760,47.015901,44.523760C46.615901,44.323760,46.415901,43.823760,46.315901,43.323760C45.615901,43.323760,44.815901,43.123760,44.315901,42.723760C43.915901,43.423760,43.115901,44.123760,42.215901,44.123760C40.815901,44.223760,39.715901,43.223760,39.615901,41.923760L39.615901,41.423760C39.415901,41.423760,39.115901,41.523760,38.915901,41.523760C36.815901,41.623760,35.015901,40.023760,34.915901,38.023760C34.815901,36.023760,36.115901,34.323760,38.115901,34.023760C37.715901,33.523760,37.415901,33.023760,37.415901,32.323760C37.315901,31.123760,38.115901,29.923760,39.315901,29.623760C40.415901,25.523760,44.015901,22.423760,48.615901,22.123760C54.415901,21.723760,64.315901,29.223760,64.815901,35.523760C65.015901,41.223760,60.715901,46.223760,55.015901,46.623760C54.415901,46.523760,54.015901,46.523760,53.815901,46.523760L53.815901,46.523760Z" fill="rgb(169,165,117)" stroke="none" stroke-width="1"/><path id="em79q5ff4n1l37" d="M140.715901,102.523760C140.815901,102.723760,140.815901,103.023760,140.815901,103.223760C140.815901,104.823760,139.615901,106.223760,137.915901,106.223760C136.315901,106.223760,135.015901,105.123760,134.915901,103.623760C134.415901,104.223760,133.515901,104.623760,132.715901,104.623760C131.115901,104.623760,129.815901,103.423760,129.715901,101.723760C129.715901,100.623760,130.315901,99.623760,131.215901,99.123760C130.615901,98.723760,130.215901,98.023760,130.115901,97.223760C129.115901,97.223760,128.115901,96.823760,127.415901,96.123760C126.815901,97.223760,125.715901,98.023760,124.315901,98.123760C122.415901,98.123760,120.815901,96.523760,120.815901,94.623760C120.815901,94.423760,120.815901,94.123760,120.915901,93.923760C120.415901,94.023760,120.015901,94.023760,119.715901,94.023760C116.715901,94.023760,114.415901,91.623760,114.415901,88.823760C114.315901,85.923760,116.515901,83.623760,119.315901,83.523760C118.815901,82.823760,118.415901,81.923760,118.415901,80.923760C118.415901,79.223760,119.515901,77.723760,121.115901,77.023760C123.115901,71.323760,128.615901,67.223760,135.015901,67.023760C143.515901,67.023760,156.915901,78.423760,156.915901,87.523760C157.015901,95.623760,150.415901,102.323760,142.215901,102.423760C141.715901,102.523760,141.215901,102.523760,140.715901,102.523760Z" fill="rgb(154,150,116)" stroke="none" stroke-width="1"/><path id="em79q5ff4n1l38" d="M144.815901,102.023760C144.915901,102.223760,144.915901,102.523760,144.915901,102.923760C145.015901,104.623760,143.715901,106.123760,141.915901,106.323760C140.315901,106.423760,138.915901,105.223760,138.715901,103.723760C138.115901,104.323760,137.315901,104.823760,136.315901,104.823760C134.615901,104.923760,133.115901,103.723760,132.915901,101.923760C132.815901,100.723760,133.415901,99.723760,134.315901,99.023760C133.715901,98.523760,133.215901,97.923760,133.115901,97.023760C132.015901,97.123760,130.915901,96.623760,130.015901,96.023760C129.515901,97.223760,128.315901,98.123760,126.915901,98.123760C124.815901,98.223760,123.015901,96.723760,122.915901,94.623760L122.915901,93.923760C122.515901,94.023760,122.015901,94.023760,121.715901,94.123760C118.515901,94.223760,115.715901,91.923760,115.615901,88.623760C115.415901,85.623760,117.615901,83.023760,120.615901,82.623760C120.015901,81.923760,119.515901,81.023760,119.515901,79.923760C119.415901,78.023760,120.515901,76.323760,122.215901,75.523760C124.115901,69.323760,129.715901,64.423760,136.615901,64.123760C145.715901,63.523760,160.915901,75.223760,161.515901,84.923760C162.015901,93.723760,155.315901,101.323760,146.415901,101.923760C145.915901,102.023760,145.315901,102.023760,144.815901,102.023760L144.815901,102.023760Z" fill="rgb(169,165,117)" stroke="none" stroke-width="1"/><path id="em79q5ff4n1l39" d="M177.315901,80.323760C177.515901,80.323760,177.815901,80.423760,178.015901,80.423760C179.615901,81.023760,180.415901,82.823760,179.715901,84.323760C179.215901,85.723760,177.715901,86.423760,176.215901,86.223760C176.615901,86.823760,176.715901,87.723760,176.415901,88.623760C175.815901,90.123760,174.215901,90.823760,172.515901,90.323760C171.515901,89.923760,170.915901,89.123760,170.615901,88.123760C170.015901,88.523760,169.215901,88.623760,168.515901,88.523760C168.115901,89.523760,167.415901,90.223760,166.515901,90.623760C167.415901,91.623760,167.615901,93.023760,167.115901,94.223760C166.515901,95.923760,164.515901,96.923760,162.615901,96.223760C162.415901,96.223760,162.215901,96.123760,162.015901,96.023760C162.015901,96.423760,161.915901,96.723760,161.815901,97.123760C160.715901,99.823760,157.715901,101.323760,155.015901,100.223760C152.315901,99.323760,150.915901,96.523760,151.815901,93.723760C150.915901,93.923760,149.915901,93.923760,149.115901,93.723760C147.415901,93.123760,146.415901,91.323760,146.515901,89.723760C141.915901,85.723760,139.915901,79.323760,142.115901,73.223760C145.015901,65.423760,160.515901,56.823760,169.015901,60.023760C176.715901,62.723760,180.615901,71.323760,177.815901,79.023760C177.715901,79.423760,177.515901,79.823760,177.315901,80.323760L177.315901,80.323760Z" fill="rgb(154,150,116)" stroke="none" stroke-width="1"/><path id="em79q5ff4n1l40" d="M178.315901,76.323760C178.515901,76.323760,178.915901,76.323760,179.215901,76.423760C180.815901,76.923760,181.815901,78.823760,181.315901,80.423760C180.815901,82.023760,179.215901,82.923760,177.715901,82.623760C178.115901,83.323760,178.215901,84.223760,177.915901,85.123760C177.415901,86.823760,175.715901,87.723760,173.915901,87.223760C172.815901,86.823760,172.015901,86.023760,171.815901,84.823760C171.215901,85.323760,170.315901,85.523760,169.415901,85.423760C169.215901,86.423760,168.415901,87.323760,167.415901,87.923760C168.415901,88.823760,168.815901,90.323760,168.315901,91.623760C167.715901,93.623760,165.715901,94.723760,163.715901,94.123760C163.315901,94.023760,163.115901,93.923760,163.015901,93.723760C162.915901,94.223760,162.915901,94.623760,162.815901,95.123760C161.815901,98.123760,158.615901,99.823760,155.615901,98.823760C152.615901,97.923760,151.015901,94.923760,151.715901,92.023760C150.815901,92.423760,149.715901,92.423760,148.815901,92.123760C146.915901,91.523760,145.715901,89.923760,145.715901,88.023760C140.515901,84.023760,138.015901,77.123760,140.115901,70.523760C142.715901,61.823760,159.015901,51.723760,168.315901,54.623760C176.815901,57.223760,181.515901,66.323760,178.915901,74.623760C178.715901,75.323760,178.515901,75.823760,178.315901,76.323760L178.315901,76.323760Z" fill="rgb(169,165,117)" stroke="none" stroke-width="1"/><path id="em79q5ff4n1l41" d="M86.115901,42.123760C86.215901,42.323760,86.215901,42.623760,86.215901,42.823760C86.215901,44.423760,85.015901,45.823760,83.315901,45.823760C81.715901,45.823760,80.415901,44.723760,80.315901,43.223760C79.815901,43.823760,78.915901,44.223760,78.115901,44.223760C76.515901,44.223760,75.215901,43.023760,75.215901,41.323760C75.115901,40.223760,75.715901,39.223760,76.615901,38.723760C76.115901,38.323760,75.615901,37.623760,75.515901,36.823760C74.515901,36.823760,73.515901,36.423760,72.815901,35.723760C72.215901,36.823760,71.115901,37.623760,69.715901,37.723760C67.815901,37.723760,66.215901,36.123760,66.215901,34.223760C66.215901,34.023760,66.215901,33.723760,66.315901,33.523760C65.915901,33.623760,65.415901,33.623760,65.115901,33.623760C62.115901,33.623760,59.815901,31.223760,59.815901,28.423760C59.815901,25.523760,61.915901,23.223760,64.715901,23.123760C64.215901,22.423760,63.815901,21.523760,63.815901,20.623760C63.815901,18.723760,64.915901,17.223760,66.515901,16.623760C68.615901,10.923760,74.015901,6.823760,80.415901,6.623760C88.915901,6.623760,102.315901,18.023760,102.315901,27.123760C102.415901,35.223760,95.815901,41.923760,87.715901,42.023760C87.115901,42.123760,86.615901,42.123760,86.115901,42.123760L86.115901,42.123760Z" fill="rgb(154,150,116)" stroke="none" stroke-width="1"/><path id="em79q5ff4n1l42" d="M90.215901,41.623760C90.315901,41.823760,90.315901,42.123760,90.315901,42.523760C90.415901,44.223760,89.115901,45.723760,87.315901,45.923760C85.715901,46.023760,84.315901,44.823760,84.115901,43.323760C83.515901,43.923760,82.715901,44.423760,81.715901,44.423760C80.015901,44.523760,78.515901,43.323760,78.315901,41.523760C78.315901,40.323760,78.815901,39.323760,79.815901,38.623760C79.115901,38.123760,78.715901,37.523760,78.415901,36.623760C77.315901,36.723760,76.215901,36.223760,75.315901,35.623760C74.815901,36.823760,73.615901,37.723760,72.215901,37.723760C70.115901,37.823760,68.315901,36.323760,68.215901,34.223760L68.215901,33.523760C67.815901,33.623760,67.315901,33.623760,67.015901,33.723760C63.815901,33.823760,61.015901,31.523760,60.915901,28.223760C60.715901,25.223760,62.915901,22.623760,65.915901,22.223760C65.315901,21.523760,64.815901,20.623760,64.815901,19.523760C64.715901,17.623760,65.815901,15.923760,67.515901,15.123760C69.415901,8.923760,75.015901,4.023760,81.915901,3.723760C91.015901,3.123760,106.215901,14.823760,106.815901,24.523760C107.315901,33.323760,100.615901,40.923760,91.715901,41.523760C91.315901,41.623760,90.715901,41.623760,90.215901,41.623760L90.215901,41.623760Z" fill="rgb(169,165,117)" stroke="none" stroke-width="1"/><path id="em79q5ff4n1l43" d="M102.515901,57.623760C102.715901,57.823760,103.015901,58.023760,103.115901,58.223760C104.215901,59.423760,104.015901,61.323760,102.715901,62.323760C101.515901,63.323760,99.815901,63.223760,98.715901,62.223760C98.715901,62.923760,98.315901,63.723760,97.715901,64.323760C96.315901,65.323760,94.615901,65.023760,93.515901,63.823760C92.915901,62.923760,92.815901,61.923760,93.115901,60.923760C92.415901,60.923760,91.615901,60.723760,91.015901,60.223760C90.315901,60.823760,89.115901,61.123760,88.115901,61.123760C88.315901,62.223760,88.015901,63.623760,86.915901,64.523760C85.415901,65.623760,83.315901,65.523760,82.015901,64.023760C81.915901,63.823760,81.815901,63.523760,81.615901,63.323760C81.415901,63.723760,81.115901,63.923760,80.715901,64.223760C78.515901,66.123760,75.115901,65.723760,73.215901,63.523760C71.515901,61.323760,71.715901,58.223760,73.715901,56.323760C72.815901,56.123760,72.115901,55.623760,71.515901,54.823760C70.415901,53.423760,70.415901,51.623760,71.315901,50.123760C69.315901,44.423760,71.115901,37.823760,76.015901,33.723760C82.615901,28.523760,100.315901,29.123760,105.915901,36.223760C111.115901,42.523760,110.115901,51.923760,103.815901,57.023760C103.415901,57.123760,103.015901,57.323760,102.515901,57.623760L102.515901,57.623760Z" fill="rgb(154,150,116)" stroke="none" stroke-width="1"/><path id="em79q5ff4n1l44" d="M105.515901,54.723760C105.715901,54.823760,106.015901,55.123760,106.115901,55.323760C107.315901,56.523760,107.215901,58.523760,105.915901,59.823760C104.815901,60.923760,102.915901,60.823760,101.715901,59.823760C101.715901,60.723760,101.315901,61.523760,100.715901,62.223760C99.315901,63.323760,97.315901,63.223760,96.215901,62.023760C95.315901,61.123760,95.215901,59.923760,95.615901,58.923760C94.715901,58.923760,94.015901,58.723760,93.415901,58.223760C92.515901,58.923760,91.415901,59.323760,90.315901,59.323760C90.715901,60.523760,90.315901,62.023760,89.215901,63.023760C87.715901,64.423760,85.315901,64.223760,83.915901,62.823760C83.815901,62.623760,83.715901,62.323760,83.515901,62.123760C83.315901,62.523760,82.915901,62.823760,82.615901,63.123760C80.215901,65.223760,76.515901,65.123760,74.415901,62.723760C72.415901,60.323760,72.515901,57.023760,74.615901,54.723760C73.615901,54.623760,72.715901,54.123760,72.015901,53.323760C70.815901,51.923760,70.615901,49.823760,71.515901,48.223760C69.115901,42.123760,70.515901,34.923760,75.715901,30.323760C82.415901,24.223760,101.615901,24.023760,108.015901,31.223760C114.015901,37.823760,113.315901,47.923760,106.815901,53.823760C106.415901,54.123760,105.915901,54.423760,105.515901,54.723760L105.515901,54.723760Z" fill="rgb(169,165,117)" stroke="none" stroke-width="1"/><path id="em79q5ff4n1l45" d="M128.415901,45.423760C128.615901,45.523760,128.915901,45.823760,129.015901,46.023760C130.015901,47.223760,129.915901,49.123760,128.515901,50.123760C127.415901,51.023760,125.615901,51.023760,124.615901,49.923760C124.615901,50.823760,124.215901,51.523760,123.515901,52.023760C122.315901,53.123760,120.415901,52.923760,119.415901,51.623760C118.715901,50.723760,118.515901,49.623760,118.915901,48.623760C118.215901,48.723760,117.515901,48.423760,116.915901,47.923760C116.015901,48.623760,115.015901,48.923760,114.015901,48.823760C114.215901,50.023760,113.815901,51.423760,112.815901,52.223760C111.315901,53.423760,109.115901,53.223760,107.915901,51.723760C107.715901,51.623760,107.515901,51.323760,107.415901,51.123760C107.215901,51.523760,106.915901,51.723760,106.715901,52.023760C104.315901,53.923760,101.015901,53.523760,99.215901,51.323760C97.315901,49.123760,97.615901,45.823760,99.715901,44.023760C98.815901,43.923760,98.015901,43.423760,97.515901,42.623760C96.315901,41.223760,96.315901,39.223760,97.315901,37.923760C95.315901,32.123760,96.915901,25.523760,102.015901,21.523760C108.515901,16.223760,126.115901,16.923760,131.915901,23.923760C137.015901,30.223760,136.015901,39.623760,129.715901,44.823760C129.315901,44.723760,128.915901,45.123760,128.415901,45.423760L128.415901,45.423760Z" fill="rgb(154,150,116)" stroke="none" stroke-width="1"/><path id="em79q5ff4n1l46" d="M131.315901,42.523760C131.515901,42.623760,131.815901,42.723760,132.015901,43.023760C133.115901,44.423760,133.015901,46.423760,131.815901,47.523760C130.615901,48.623760,128.815901,48.623760,127.615901,47.523760C127.615901,48.423760,127.215901,49.223760,126.515901,49.923760C125.315901,51.123760,123.315901,51.023760,122.015901,49.823760C121.315901,48.923760,121.015901,47.723760,121.415901,46.623760C120.715901,46.723760,119.815901,46.523760,119.215901,46.023760C118.315901,46.723760,117.215901,47.123760,116.215901,47.123760C116.415901,48.323760,116.115901,49.823760,115.115901,50.723760C113.515901,52.123760,111.115901,51.923760,109.815901,50.523760C109.715901,50.323760,109.415901,50.123760,109.315901,49.923760C109.115901,50.323760,108.815901,50.523760,108.415901,50.923760C106.015901,53.023760,102.415901,52.823760,100.315901,50.423760C98.315901,48.223760,98.315901,44.723760,100.415901,42.623760C99.515901,42.523760,98.715901,42.023760,97.915901,41.223760C96.715901,39.723760,96.415901,37.623760,97.415901,36.123760C94.915901,30.023760,96.415901,22.823760,101.515901,18.123760C108.315901,12.023760,127.415901,11.823760,134.015901,19.123760C139.815901,25.623760,139.315901,35.823760,132.815901,41.623760C132.315901,41.823760,131.815901,42.123760,131.315901,42.523760L131.315901,42.523760Z" fill="rgb(169,165,117)" stroke="none" stroke-width="1"/><path id="em79q5ff4n1l47" d="M96.715901,41.523760C96.715901,41.723760,96.815901,42.023760,96.815901,42.223760C96.815901,43.823760,95.415901,45.223760,93.815901,45.223760C92.315901,45.223760,91.115901,44.123760,90.815901,42.623760C90.315901,43.223760,89.615901,43.623760,88.715901,43.623760C87.115901,43.623760,85.715901,42.423760,85.715901,40.723760C85.715901,39.623760,86.315901,38.623760,87.215901,38.123760C86.615901,37.723760,86.215901,37.023760,86.115901,36.223760C85.015901,36.223760,84.015901,35.823760,83.215901,35.123760C82.715901,36.223760,81.615901,37.023760,80.215901,37.123760C78.215901,37.123760,76.715901,35.523760,76.715901,33.623760L76.715901,32.923760C76.315901,33.023760,76.015901,33.023760,75.515901,33.023760C72.615901,33.023760,70.315901,30.623760,70.215901,27.823760C70.215901,24.923760,72.415901,22.623760,75.215901,22.523760C74.615901,21.823760,74.315901,20.923760,74.315901,20.023760C74.215901,18.123760,75.415901,16.623760,77.015901,16.023760C79.015901,10.323760,84.515901,6.223760,90.815901,6.023760C99.315901,6.023760,112.715901,17.423760,112.815901,26.523760C112.915901,34.623760,106.315901,41.323760,98.115901,41.423760C97.715901,41.523760,97.215901,41.523760,96.715901,41.523760L96.715901,41.523760Z" fill="rgb(154,150,116)" stroke="none" stroke-width="1"/><path id="em79q5ff4n1l48" d="M100.715901,41.023760C100.815901,41.223760,100.915901,41.523760,100.915901,41.923760C101.015901,43.623760,99.715901,45.123760,97.915901,45.323760C96.315901,45.423760,94.815901,44.223760,94.515901,42.723760C94.015901,43.323760,93.115901,43.823760,92.315901,43.823760C90.615901,43.923760,89.115901,42.723760,88.915901,40.923760C88.815901,39.723760,89.415901,38.723760,90.315901,38.023760C89.715901,37.523760,89.215901,36.923760,89.115901,36.023760C87.915901,36.123760,86.915901,35.623760,86.015901,35.023760C85.415901,36.223760,84.315901,37.123760,82.815901,37.123760C80.815901,37.323760,78.915901,35.723760,78.815901,33.623760C78.815901,33.423760,78.815901,33.123760,78.915901,32.923760C78.415901,33.023760,78.015901,33.023760,77.515901,33.123760C74.415901,33.223760,71.715901,30.923760,71.415901,27.623760C71.315901,24.623760,73.415901,22.023760,76.415901,21.623760C75.815901,20.923760,75.415901,20.023760,75.315901,18.923760C75.215901,17.023760,76.415901,15.323760,78.215901,14.523760C79.915901,8.323760,85.715901,3.623760,92.515901,3.123760C101.615901,2.523760,116.815901,14.223760,117.415901,23.923760C118.015901,32.723760,111.315901,40.323760,102.515901,40.923760C101.815901,41.023760,101.315901,41.023760,100.715901,41.023760Z" fill="rgb(169,165,117)" stroke="none" stroke-width="1"/></g></g></g></g></g></g></svg>